<svg width="100" height="54" viewBox="0 0 100 54" fill="none" xmlns="http://www.w3.org/2000/svg">
<path d="M44.3152 3.40514C43.5255 3.90446 43.5119 4.29713 44.3395 5.08311C44.8732 5.59779 45.0643 5.65621 45.4325 5.3795C45.942 5.00242 46.039 3.79997 45.5862 3.34024C45.1865 2.93459 45.0763 2.93113 44.3152 3.40514Z" fill="#FF1B00"/>
<path d="M56.446 4.33654C55.9997 4.47975 55.9275 5.7616 56.3538 6.19429C57.0464 6.89741 58.5046 6.20944 58.5401 5.18851C58.5647 4.48171 57.3679 3.99861 56.446 4.33654Z" fill="#FF1B00"/>
<path d="M34.8795 8.24517C34.2167 9.06295 34.2711 9.87706 35.0298 10.2678C36.1118 10.8783 36.7004 10.6085 36.712 9.48202C36.7143 7.83109 35.7168 7.17081 34.8795 8.24517Z" fill="#FF1B00"/>
<path d="M64.1154 11.4173C62.8134 12.3722 64.0427 14.2977 65.4485 13.5295C66.5173 12.9341 66.4151 11.9088 65.1971 11.2416C64.8729 11.048 64.568 11.0908 64.1154 11.4173Z" fill="#FF1B00"/>
<mask id="path-5-inside-1_1_62" fill="white">
<path d="M44.7614 9.60385C44.1389 13.227 43.826 14.2916 43.4358 14.4104C43.2962 14.4584 41.7789 13.677 40.075 12.7062C38.3712 11.7355 36.9347 11.009 36.8759 11.112C36.7851 11.345 39.5315 16.4366 39.9844 16.8964C40.1984 17.0865 40.7192 17.1815 41.2454 17.1194C41.9653 17.0372 42.1361 16.8854 42.1534 16.388C42.1807 15.6026 42.3185 15.607 43.778 16.4652C45.751 17.6279 45.8648 17.5266 46.1809 14.7849C46.3366 13.4794 46.5456 12.2281 46.6622 12.0483C46.9532 11.612 47.9912 12.6928 49.0304 14.5337C49.4467 15.2543 49.9758 15.8999 50.1953 15.933C50.4139 15.9923 51.2687 15.2068 52.1298 14.238C54.3423 11.6868 54.56 11.7723 54.7594 15.5523C54.8694 17.9405 54.8685 17.9667 56.7363 17.3964C58.2689 16.9466 58.5168 16.9544 58.2497 17.4964C58.1304 17.7547 57.8579 18.4537 57.6165 19.0488L57.2201 20.137L58.1102 20.7153C58.5961 21.0189 59.1664 21.2726 59.3317 21.2778C59.5246 21.2839 59.9873 20.6695 60.3728 19.8954C60.7582 19.1213 61.6146 17.4972 62.2644 16.2597C62.9418 15.0231 63.4769 13.913 63.4815 13.7822C63.4915 13.4942 63.1342 13.4568 62.7661 13.7335C62.6237 13.86 61.3391 14.3176 59.8901 14.7438C57.3822 15.4774 57.2436 15.4993 56.9018 15.0168C56.6648 14.6949 56.5901 13.6705 56.6236 11.9157C56.6746 10.4498 56.6227 8.77095 56.561 8.16627L56.4073 7.03457L54.9733 8.61431C52.5358 11.2894 50.5141 13.1128 50.1605 12.9706C49.9704 12.886 48.8918 11.3846 47.7663 9.64583C46.6417 7.88088 45.644 6.4344 45.5338 6.43094C45.4236 6.42748 45.0704 7.85773 44.7614 9.60385Z"/>
</mask>
<path d="M44.7614 9.60385C44.1389 13.227 43.826 14.2916 43.4358 14.4104C43.2962 14.4584 41.7789 13.677 40.075 12.7062C38.3712 11.7355 36.9347 11.009 36.8759 11.112C36.7851 11.345 39.5315 16.4366 39.9844 16.8964C40.1984 17.0865 40.7192 17.1815 41.2454 17.1194C41.9653 17.0372 42.1361 16.8854 42.1534 16.388C42.1807 15.6026 42.3185 15.607 43.778 16.4652C45.751 17.6279 45.8648 17.5266 46.1809 14.7849C46.3366 13.4794 46.5456 12.2281 46.6622 12.0483C46.9532 11.612 47.9912 12.6928 49.0304 14.5337C49.4467 15.2543 49.9758 15.8999 50.1953 15.933C50.4139 15.9923 51.2687 15.2068 52.1298 14.238C54.3423 11.6868 54.56 11.7723 54.7594 15.5523C54.8694 17.9405 54.8685 17.9667 56.7363 17.3964C58.2689 16.9466 58.5168 16.9544 58.2497 17.4964C58.1304 17.7547 57.8579 18.4537 57.6165 19.0488L57.2201 20.137L58.1102 20.7153C58.5961 21.0189 59.1664 21.2726 59.3317 21.2778C59.5246 21.2839 59.9873 20.6695 60.3728 19.8954C60.7582 19.1213 61.6146 17.4972 62.2644 16.2597C62.9418 15.0231 63.4769 13.913 63.4815 13.7822C63.4915 13.4942 63.1342 13.4568 62.7661 13.7335C62.6237 13.86 61.3391 14.3176 59.8901 14.7438C57.3822 15.4774 57.2436 15.4993 56.9018 15.0168C56.6648 14.6949 56.5901 13.6705 56.6236 11.9157C56.6746 10.4498 56.6227 8.77095 56.561 8.16627L56.4073 7.03457L54.9733 8.61431C52.5358 11.2894 50.5141 13.1128 50.1605 12.9706C49.9704 12.886 48.8918 11.3846 47.7663 9.64583C46.6417 7.88088 45.644 6.4344 45.5338 6.43094C45.4236 6.42748 45.0704 7.85773 44.7614 9.60385Z" fill="url(#paint0_linear_1_62)" stroke="black" stroke-width="0.4" mask="url(#path-5-inside-1_1_62)"/>
<path d="M29.0414 17.4961C26.685 17.8413 24.2453 18.9964 22.5651 20.516C21.7104 21.3015 20.9925 22.1176 20.9843 22.3532C20.9715 22.7197 21.0542 22.7223 21.6207 22.2946C22.727 21.4121 25.637 20.2194 27.8877 19.7398C29.5269 19.3982 30.9641 19.3123 33.9129 19.3787C39.4791 19.5273 42.0259 20.0529 52.6696 23.2961C61.4021 25.9814 64.5486 26.7092 68.5656 26.9926C72.1142 27.2613 74.2768 26.9362 75.6366 25.9044L76.4015 25.3257L72.8483 25.1879C68.9912 25.0667 65.2064 24.4499 61.6594 23.3426C51.6742 20.1987 46.2637 18.7446 41.7939 18.0015C38.5868 17.429 31.2876 17.1473 29.0414 17.4961Z" fill="url(#paint1_linear_1_62)"/>
<path d="M29.431 21.3606C28.0416 21.6577 26.3007 22.5464 25.669 23.2603C24.7216 24.3312 24.8514 25.3574 26.052 26.5219C27.6798 28.093 29.8354 28.7635 34.1554 29.0564C37.4019 29.2895 37.9822 29.2553 39.6811 28.7845C41.6306 28.243 43.2338 27.3499 41.7626 27.6182C38.1261 28.2902 34.9853 28.1915 30.9609 27.3313C27.8943 26.6846 26.1572 25.0839 27.0063 23.6692C28.1766 21.7405 33.9129 22.5497 47.041 26.5261C54.7118 28.8112 57.3669 29.3925 61.9909 29.6688C65.1832 29.8739 66.8381 29.8735 69.0274 29.5753C73.6814 28.9878 73.55 28.8002 68.1086 28.2362C66.8991 28.1195 64.3772 27.6734 62.488 27.2734C58.9833 26.5344 57.6709 26.2049 49.6072 24.1171C41.4892 22.0015 39.4338 21.6224 34.6702 21.3942C32.2476 21.2657 29.9039 21.2444 29.431 21.3606Z" fill="url(#paint2_linear_1_62)"/>
<mask id="path-8-inside-2_1_62" fill="white">
<path d="M69.2452 30.8658C68.9065 30.9771 68.5542 31.2975 68.4254 31.5786C68.3241 31.8613 68.2027 35.4231 68.1847 39.5158C68.1421 47.8058 68.2076 48.0721 70.0447 49.1248C71.4828 49.9441 73.9865 50.0913 75.5474 49.4483C76.1714 49.1963 77.0737 48.4883 77.553 47.9129L78.4241 46.8357L78.3593 42.3183C78.2955 36.9349 77.9818 35.8143 76.2445 34.9249C75.603 34.5985 74.516 34.3247 73.6081 34.2713L72.0398 34.1791L71.9667 32.7577C71.8765 31.5978 71.7301 31.3005 71.1969 31.0068C70.4211 30.62 70.091 30.6006 69.2452 30.8658ZM74.5855 37.9239C74.8643 38.3077 74.963 39.337 74.9218 42.09C74.8863 45.6043 74.8468 45.7857 74.2659 46.2239C73.5974 46.7357 72.4075 46.7707 71.9429 46.271C71.5815 45.8824 71.4284 43.1442 71.6157 40.2686C71.692 38.6723 71.8429 38.0514 72.1935 37.7571C72.807 37.2421 74.0709 37.3426 74.5855 37.9239Z"/>
</mask>
<path d="M69.2452 30.8658C68.9065 30.9771 68.5542 31.2975 68.4254 31.5786C68.3241 31.8613 68.2027 35.4231 68.1847 39.5158C68.1421 47.8058 68.2076 48.0721 70.0447 49.1248C71.4828 49.9441 73.9865 50.0913 75.5474 49.4483C76.1714 49.1963 77.0737 48.4883 77.553 47.9129L78.4241 46.8357L78.3593 42.3183C78.2955 36.9349 77.9818 35.8143 76.2445 34.9249C75.603 34.5985 74.516 34.3247 73.6081 34.2713L72.0398 34.1791L71.9667 32.7577C71.8765 31.5978 71.7301 31.3005 71.1969 31.0068C70.4211 30.62 70.091 30.6006 69.2452 30.8658ZM74.5855 37.9239C74.8643 38.3077 74.963 39.337 74.9218 42.09C74.8863 45.6043 74.8468 45.7857 74.2659 46.2239C73.5974 46.7357 72.4075 46.7707 71.9429 46.271C71.5815 45.8824 71.4284 43.1442 71.6157 40.2686C71.692 38.6723 71.8429 38.0514 72.1935 37.7571C72.807 37.2421 74.0709 37.3426 74.5855 37.9239Z" fill="url(#paint3_linear_1_62)" stroke="url(#paint4_linear_1_62)" stroke-width="2" mask="url(#path-8-inside-2_1_62)"/>
<mask id="path-9-inside-3_1_62" fill="white">
<path d="M91.9848 34.5382C91.3316 34.8147 90.4585 35.4981 89.9791 36.0735L89.1355 37.1523L89.0473 41.4771C88.9482 45.1189 89.0296 45.9897 89.4377 46.9321C90.7155 49.7889 94.6522 50.8338 97.1769 48.9616C99.1775 47.5047 99.7848 45.3886 98.4911 44.4728C97.9096 44.0712 97.7996 44.0647 97.1688 44.4213C96.77 44.6078 96.2682 45.1031 96.0501 45.4839C95.8319 45.8647 95.3043 46.3323 94.8763 46.5433C94.1664 46.8427 94.0013 46.833 93.3631 46.4544C92.7524 46.0773 92.606 45.78 92.6072 44.9141L92.5962 43.8113L93.9287 43.706C95.9267 43.561 97.2967 42.8805 98.3224 41.55C99.0766 40.5709 99.2414 40.1607 99.1943 39.187C99.1606 37.5842 98.4839 36.1011 97.4361 35.226C96.1768 34.2073 93.5749 33.8706 91.9848 34.5382ZM95.2625 37.6437C95.6341 37.8755 95.7495 38.2234 95.7036 38.9293C95.6201 40.2102 95.2128 40.5274 93.7821 40.4433C92.8192 40.3867 92.6059 40.2692 92.5006 39.7644C92.2902 38.7548 92.4034 38.2891 93.0169 37.7741C93.6597 37.2346 94.4643 37.1769 95.2625 37.6437Z"/>
</mask>
<path d="M91.9848 34.5382C91.3316 34.8147 90.4585 35.4981 89.9791 36.0735L89.1355 37.1523L89.0473 41.4771C88.9482 45.1189 89.0296 45.9897 89.4377 46.9321C90.7155 49.7889 94.6522 50.8338 97.1769 48.9616C99.1775 47.5047 99.7848 45.3886 98.4911 44.4728C97.9096 44.0712 97.7996 44.0647 97.1688 44.4213C96.77 44.6078 96.2682 45.1031 96.0501 45.4839C95.8319 45.8647 95.3043 46.3323 94.8763 46.5433C94.1664 46.8427 94.0013 46.833 93.3631 46.4544C92.7524 46.0773 92.606 45.78 92.6072 44.9141L92.5962 43.8113L93.9287 43.706C95.9267 43.561 97.2967 42.8805 98.3224 41.55C99.0766 40.5709 99.2414 40.1607 99.1943 39.187C99.1606 37.5842 98.4839 36.1011 97.4361 35.226C96.1768 34.2073 93.5749 33.8706 91.9848 34.5382ZM95.2625 37.6437C95.6341 37.8755 95.7495 38.2234 95.7036 38.9293C95.6201 40.2102 95.2128 40.5274 93.7821 40.4433C92.8192 40.3867 92.6059 40.2692 92.5006 39.7644C92.2902 38.7548 92.4034 38.2891 93.0169 37.7741C93.6597 37.2346 94.4643 37.1769 95.2625 37.6437Z" fill="url(#paint5_linear_1_62)" stroke="url(#paint6_linear_1_62)" stroke-width="2" mask="url(#path-9-inside-3_1_62)"/>
<mask id="path-10-inside-4_1_62" fill="white">
<path d="M84.1074 34.2063C82.4759 34.6614 81.0821 35.7079 80.4793 36.9059C79.9985 37.9273 79.9594 38.5285 79.9315 43.198C79.9385 46.0588 80.0227 48.583 80.1708 48.8541C80.7287 50.0416 82.5102 50.2513 83.1561 49.2395C83.4293 48.862 83.5039 47.2918 83.534 43.436L83.5753 38.1375L84.3298 37.5783C84.8505 37.2153 85.4402 37.0663 86.2656 37.1148C87.8614 37.2086 88.6227 36.5448 88.2248 35.4455C87.7321 34.1045 86.1602 33.6447 84.1074 34.2063Z"/>
</mask>
<path d="M84.1074 34.2063C82.4759 34.6614 81.0821 35.7079 80.4793 36.9059C79.9985 37.9273 79.9594 38.5285 79.9315 43.198C79.9385 46.0588 80.0227 48.583 80.1708 48.8541C80.7287 50.0416 82.5102 50.2513 83.1561 49.2395C83.4293 48.862 83.5039 47.2918 83.534 43.436L83.5753 38.1375L84.3298 37.5783C84.8505 37.2153 85.4402 37.0663 86.2656 37.1148C87.8614 37.2086 88.6227 36.5448 88.2248 35.4455C87.7321 34.1045 86.1602 33.6447 84.1074 34.2063Z" fill="url(#paint7_linear_1_62)" stroke="url(#paint8_linear_1_62)" stroke-width="2" mask="url(#path-10-inside-4_1_62)"/>
<mask id="path-11-inside-5_1_62" fill="white">
<path d="M60.2647 34.3266C59.6492 34.4479 58.7055 34.9435 58.0043 35.5321L56.8357 36.5131L56.7201 41.2561C56.5467 46.8879 56.6866 47.7097 57.9717 48.7562C58.8371 49.4631 59.1346 49.5593 61.1706 49.679C63.1241 49.7938 63.5419 49.7397 64.5732 49.1705C66.4348 48.1515 66.8262 47.2298 66.822 43.477C66.8457 37.6001 66.7368 36.7277 65.7251 35.7235C64.3227 34.3552 62.5565 33.9103 60.2647 34.3266ZM62.9116 37.7887C63.4346 38.2393 63.4675 38.5824 63.3821 42.0151C63.3017 45.3694 63.247 45.786 62.7761 46.2307C62.1592 46.798 60.8885 46.802 60.4531 46.2778C60.0968 45.8108 59.8754 41.1529 60.1097 39.251C60.2723 38.0272 60.3976 37.7984 60.9941 37.5448C61.931 37.1538 62.232 37.1977 62.9116 37.7887Z"/>
</mask>
<path d="M60.2647 34.3266C59.6492 34.4479 58.7055 34.9435 58.0043 35.5321L56.8357 36.5131L56.7201 41.2561C56.5467 46.8879 56.6866 47.7097 57.9717 48.7562C58.8371 49.4631 59.1346 49.5593 61.1706 49.679C63.1241 49.7938 63.5419 49.7397 64.5732 49.1705C66.4348 48.1515 66.8262 47.2298 66.822 43.477C66.8457 37.6001 66.7368 36.7277 65.7251 35.7235C64.3227 34.3552 62.5565 33.9103 60.2647 34.3266ZM62.9116 37.7887C63.4346 38.2393 63.4675 38.5824 63.3821 42.0151C63.3017 45.3694 63.247 45.786 62.7761 46.2307C62.1592 46.798 60.8885 46.802 60.4531 46.2778C60.0968 45.8108 59.8754 41.1529 60.1097 39.251C60.2723 38.0272 60.3976 37.7984 60.9941 37.5448C61.931 37.1538 62.232 37.1977 62.9116 37.7887Z" fill="url(#paint9_linear_1_62)" stroke="url(#paint10_linear_1_62)" stroke-width="2" mask="url(#path-11-inside-5_1_62)"/>
<mask id="path-12-inside-6_1_62" fill="white">
<path d="M49.227 34.1763C47.6074 34.4485 46.344 35.1877 45.7532 36.2027C45.2551 37.0656 45.221 37.5885 45.2019 42.5471C45.1734 48.9223 45.3065 49.8485 46.2266 50.1388C47.2017 50.4323 48.2402 50.1785 48.4719 49.5885C48.5715 49.332 48.6266 46.7897 48.5628 43.9518C48.4973 41.1401 48.5524 38.5978 48.6537 38.3151C48.9506 37.5716 50.1195 37.0105 50.7938 37.26C51.9272 37.6678 52.0704 38.4373 52.036 43.6312C52.0359 48.7221 52.2103 49.8608 53.0805 50.0694C53.9766 50.3058 54.9376 49.9686 55.1143 49.3755C55.4884 48.2953 55.256 37.4436 54.8479 36.5012C54.1538 34.8596 51.5463 33.7616 49.227 34.1763Z"/>
</mask>
<path d="M49.227 34.1763C47.6074 34.4485 46.344 35.1877 45.7532 36.2027C45.2551 37.0656 45.221 37.5885 45.2019 42.5471C45.1734 48.9223 45.3065 49.8485 46.2266 50.1388C47.2017 50.4323 48.2402 50.1785 48.4719 49.5885C48.5715 49.332 48.6266 46.7897 48.5628 43.9518C48.4973 41.1401 48.5524 38.5978 48.6537 38.3151C48.9506 37.5716 50.1195 37.0105 50.7938 37.26C51.9272 37.6678 52.0704 38.4373 52.036 43.6312C52.0359 48.7221 52.2103 49.8608 53.0805 50.0694C53.9766 50.3058 54.9376 49.9686 55.1143 49.3755C55.4884 48.2953 55.256 37.4436 54.8479 36.5012C54.1538 34.8596 51.5463 33.7616 49.227 34.1763Z" fill="url(#paint11_linear_1_62)" stroke="url(#paint12_linear_1_62)" stroke-width="2" mask="url(#path-12-inside-6_1_62)"/>
<path d="M1.69553 30.7784C1.40337 31.0237 1.18014 31.4829 1.16141 31.7705C1.12566 32.3195 1.86907 33.2029 2.39183 33.2336C2.9421 33.266 2.74637 33.7268 2.12916 33.8742C1.82141 33.9349 1.49663 34.2569 1.39366 34.5658C1.2907 34.8746 1.23958 38.2044 1.3005 41.9343C1.41414 47.3994 1.51311 48.8485 1.84525 49.2617C2.41139 49.8985 3.31933 49.9519 4.15637 49.3975C4.79231 48.9626 4.79401 48.9364 4.7433 45.0496C4.58351 34.7796 4.50382 33.8826 3.65091 33.8325C3.07313 33.7985 3.15199 33.4358 3.84806 32.9256C4.16773 32.682 4.44259 32.2783 4.46131 31.9907C4.50387 31.3372 3.59708 30.4179 2.8267 30.3726C2.46903 30.3515 1.96017 30.5316 1.69553 30.7784Z" fill="url(#paint13_linear_1_62)"/>
<path d="M35.5826 34.1877C35.4331 34.3626 35.0862 35.0245 34.8511 35.6667C34.6159 36.309 34.3274 36.9218 34.2089 37.0461C34.0903 37.1703 33.6875 36.5693 33.3001 35.733C32.6044 34.1176 31.9162 33.6573 30.8659 34.0941C29.501 34.6962 29.5254 35.1699 31.1095 38.4121C31.9102 40.1124 32.5509 41.7246 32.5322 42.0122C32.5134 42.2998 31.9161 43.8392 31.2052 45.4244C30.4635 47.0603 29.9795 48.5539 30.0434 48.8463C30.1089 49.1126 30.6061 49.5354 31.1152 49.7753C31.9443 50.1914 32.1111 50.175 32.5751 49.8349C32.8656 49.6158 33.2692 48.931 33.4752 48.3133C33.9883 46.7951 34.3545 46.6855 34.7989 47.9187C35.5001 49.8756 36.4341 50.3766 37.8109 49.5916C38.7013 49.0666 38.5873 48.2726 37.2026 44.9372C36.605 43.5113 36.1123 42.1702 36.1259 41.9611C36.1395 41.7519 36.6785 40.2616 37.3068 38.6715C37.9368 37.0553 38.474 35.5911 38.486 35.4081C38.5523 34.3885 36.3198 33.47 35.5826 34.1877Z" fill="url(#paint14_linear_1_62)"/>
<path d="M22.1101 34.1042C20.6006 34.3829 19.449 35.1024 18.7963 36.2187C18.1779 37.232 18.1677 37.3889 18.2465 42.1171C18.3284 46.3731 18.3925 47.0854 18.8693 47.822C20.2772 49.9516 23.6392 50.4904 26.3052 48.9939C27.5377 48.3053 28.2814 47.0632 28.2616 45.6712C28.2146 39.6065 28.0598 36.8945 27.7688 36.2738C27.0662 34.763 24.3177 33.7091 22.1101 34.1042ZM24.1912 37.3494C24.7726 37.7509 24.9677 38.9958 24.9475 42.2749C24.9203 45.2386 24.8672 45.6291 24.3964 46.0738C23.6901 46.7408 22.1218 46.6486 21.7826 45.9201C21.3917 45.1361 21.3754 38.6009 21.7447 38.019C22.2961 37.1855 23.4772 36.8613 24.1912 37.3494Z" fill="url(#paint15_linear_1_62)"/>
<path d="M8.74797 34.4471C7.81279 34.812 7.37285 35.206 6.90227 36.0705C6.30972 37.1116 6.2893 37.4253 6.30568 41.4151C6.34272 48.0565 6.41362 48.6642 7.00897 49.2766C7.68347 49.946 8.28876 49.9816 9.1258 49.4273L9.76174 48.9923L9.66709 43.6596C9.60107 40.008 9.69272 38.1765 9.87993 37.8464C10.768 36.5077 12.842 36.8921 13.0184 38.4245C13.072 38.8738 13.1321 41.344 13.1596 43.8911C13.2137 47.7257 13.3192 48.6503 13.703 49.119C14.5221 50.1119 16.2878 49.7171 16.3661 48.5146C16.4461 47.2859 16.2418 37.2756 16.1348 36.797C15.9383 35.9982 15.0091 34.9988 14.0442 34.5485C12.7042 33.9186 10.1954 33.8499 8.74797 34.4471Z" fill="url(#paint16_linear_1_62)"/>
<defs>
<linearGradient id="paint0_linear_1_62" x1="50.3819" y1="6.58323" x2="49.9296" y2="20.9825" gradientUnits="userSpaceOnUse">
<stop stop-color="#EFEC8F"/>
<stop offset="1" stop-color="#FFEA00"/>
</linearGradient>
<linearGradient id="paint1_linear_1_62" x1="76.4828" y1="22.9883" x2="21.0293" y2="21.0588" gradientUnits="userSpaceOnUse">
<stop stop-color="#959595"/>
<stop offset="1" stop-color="#DADADA"/>
</linearGradient>
<linearGradient id="paint2_linear_1_62" x1="72.4506" y1="26.4405" x2="25.0382" y2="24.7908" gradientUnits="userSpaceOnUse">
<stop stop-color="#D9D9D9"/>
<stop offset="0.195" stop-color="#D9D9D9"/>
<stop offset="0.99" stop-color="#737373"/>
</linearGradient>
<linearGradient id="paint3_linear_1_62" x1="72.7192" y1="49.8331" x2="73.8321" y2="30.9024" gradientUnits="userSpaceOnUse">
<stop stop-color="#F93333"/>
<stop offset="1" stop-color="#FFEE00"/>
</linearGradient>
<linearGradient id="paint4_linear_1_62" x1="72.7192" y1="49.8331" x2="73.8321" y2="30.9024" gradientUnits="userSpaceOnUse">
<stop stop-opacity="0.29"/>
<stop offset="1" stop-color="#666666"/>
</linearGradient>
<linearGradient id="paint5_linear_1_62" x1="93.6105" y1="49.8753" x2="94.5311" y2="34.2153" gradientUnits="userSpaceOnUse">
<stop stop-color="#F93333"/>
<stop offset="1" stop-color="#FFEE00"/>
</linearGradient>
<linearGradient id="paint6_linear_1_62" x1="93.6105" y1="49.8753" x2="94.5311" y2="34.2153" gradientUnits="userSpaceOnUse">
<stop stop-opacity="0.29"/>
<stop offset="1" stop-color="#666666"/>
</linearGradient>
<linearGradient id="paint7_linear_1_62" x1="83.3589" y1="49.9773" x2="84.3051" y2="33.8816" gradientUnits="userSpaceOnUse">
<stop stop-color="#F93333"/>
<stop offset="1" stop-color="#FFEE00"/>
</linearGradient>
<linearGradient id="paint8_linear_1_62" x1="83.3589" y1="49.9773" x2="84.3051" y2="33.8816" gradientUnits="userSpaceOnUse">
<stop stop-opacity="0.29"/>
<stop offset="1" stop-color="#666666"/>
</linearGradient>
<linearGradient id="paint9_linear_1_62" x1="61.2344" y1="49.6828" x2="62.1456" y2="34.1834" gradientUnits="userSpaceOnUse">
<stop stop-color="#F93333"/>
<stop offset="1" stop-color="#FFEE00"/>
</linearGradient>
<linearGradient id="paint10_linear_1_62" x1="61.2344" y1="49.6828" x2="62.1456" y2="34.1834" gradientUnits="userSpaceOnUse">
<stop stop-opacity="0.29"/>
<stop offset="1" stop-color="#666666"/>
</linearGradient>
<linearGradient id="paint11_linear_1_62" x1="49.7904" y1="50.4271" x2="50.7498" y2="34.1079" gradientUnits="userSpaceOnUse">
<stop stop-color="#F93333"/>
<stop offset="1" stop-color="#FFEE00"/>
</linearGradient>
<linearGradient id="paint12_linear_1_62" x1="49.7904" y1="50.4271" x2="50.7498" y2="34.1079" gradientUnits="userSpaceOnUse">
<stop stop-opacity="0.29"/>
<stop offset="1" stop-color="#666666"/>
</linearGradient>
<linearGradient id="paint13_linear_1_62" x1="2.31422" y1="49.7419" x2="3.45076" y2="30.4093" gradientUnits="userSpaceOnUse">
<stop stop-color="#1B1B1B"/>
<stop offset="1" stop-color="#999999"/>
</linearGradient>
<linearGradient id="paint14_linear_1_62" x1="33.5917" y1="50.1836" x2="34.5535" y2="33.8233" gradientUnits="userSpaceOnUse">
<stop stop-color="#1B1B1B"/>
<stop offset="1" stop-color="#999999"/>
</linearGradient>
<linearGradient id="paint15_linear_1_62" x1="22.7372" y1="49.8335" x2="23.6655" y2="34.044" gradientUnits="userSpaceOnUse">
<stop stop-color="#1B1B1B"/>
<stop offset="1" stop-color="#999999"/>
</linearGradient>
<linearGradient id="paint16_linear_1_62" x1="10.9175" y1="49.982" x2="11.8537" y2="34.0558" gradientUnits="userSpaceOnUse">
<stop stop-color="#1B1B1B"/>
<stop offset="1" stop-color="#999999"/>
</linearGradient>
</defs>
</svg>
