<?xml version="1.0" standalone="no"?>
<!DOCTYPE svg PUBLIC "-//W3C//DTD SVG 20010904//EN"
 "http://www.w3.org/TR/2001/REC-SVG-20010904/DTD/svg10.dtd">
<svg version="1.0" xmlns="http://www.w3.org/2000/svg"
 width="320.000000pt" height="320.000000pt" viewBox="0 0 320.000000 320.000000"
 preserveAspectRatio="xMidYMid meet">

<g transform="translate(0.000000,320.000000) scale(0.100000,-0.100000)"
fill="#000000" stroke="none">
<path d="M0 1600 l0 -1600 1215 0 c803 0 1215 3 1215 10 0 6 7 10 15 10 8 0
15 -5 15 -10 0 -6 9 -5 21 2 18 11 23 11 26 0 4 -10 77 -12 349 -11 l344 1 0
1599 0 1599 -179 0 -179 0 -6 -32 c-5 -28 -2 -67 4 -75 2 -2 3 -7 4 -12 0 -5
4 -13 8 -17 4 -4 3 -12 -2 -19 -6 -7 -5 -23 3 -45 9 -26 9 -34 0 -37 -7 -3
-13 -12 -13 -20 0 -14 -2 -14 -18 0 -10 10 -22 17 -25 17 -9 0 3 -53 13 -60 4
-3 5 -22 2 -42 -4 -33 -6 -36 -23 -28 -14 8 -23 5 -41 -12 -49 -48 -52 -56
-33 -78 10 -11 15 -23 12 -27 -4 -3 -7 -1 -7 6 0 7 -5 9 -10 6 -6 -3 -17 0
-25 9 -11 11 -12 16 -2 20 9 5 9 7 0 12 -8 4 -9 13 -3 30 7 19 6 24 -5 24 -8
0 -15 -9 -15 -19 0 -10 -7 -21 -15 -25 -8 -3 -12 -12 -9 -21 4 -9 1 -15 -9
-15 -10 0 -14 9 -13 25 0 14 6 25 12 25 7 0 14 6 17 13 4 10 -2 13 -18 9 -15
-2 -28 -15 -34 -33 -8 -24 -15 -28 -43 -26 -18 1 -36 7 -40 12 -5 6 -8 5 -8
-3 0 -16 47 -34 70 -27 11 3 20 -1 23 -9 7 -17 -12 -33 -22 -19 -11 17 -36 21
-48 7 -10 -10 -10 -14 0 -17 7 -3 3 -6 -8 -8 -11 -1 -24 -3 -30 -4 -5 -2 -14
-3 -19 -4 -5 0 -3 -7 3 -15 7 -8 8 -16 4 -19 -13 -8 -63 4 -63 15 0 6 -6 6
-14 -1 -11 -9 -15 -9 -19 1 -3 8 -6 6 -6 -5 -1 -14 -6 -17 -21 -12 -21 7 -21
7 -25 -56 l-2 -37 41 4 c33 3 36 2 16 -5 -66 -23 -111 -34 -117 -27 -4 4 3 9
15 13 24 6 30 45 12 73 -8 12 -10 9 -10 -12 0 -36 -10 -58 -25 -58 -13 0 -13
-31 0 -62 4 -11 3 -18 -5 -18 -6 0 -14 9 -17 20 -9 34 -40 23 -34 -12 0 -5 -6
-8 -14 -8 -8 0 -15 -4 -15 -10 0 -5 7 -10 16 -10 8 0 12 -5 9 -10 -4 -6 -16
-8 -27 -4 -17 5 -20 3 -16 -14 4 -15 2 -19 -8 -15 -8 3 -14 11 -14 19 0 17
-12 18 -28 2 -9 -9 -15 -10 -20 -2 -7 12 -81 12 -101 0 -6 -4 -11 -3 -11 2 0
5 -14 12 -31 14 -22 4 -33 0 -40 -15 -8 -13 -17 -17 -32 -12 -12 3 -26 7 -32
8 -5 2 -16 6 -22 10 -9 6 -13 2 -13 -12 0 -11 -5 -23 -11 -27 -8 -5 -8 -8 0
-13 12 -8 -22 -51 -39 -51 -18 0 -10 19 10 25 21 7 28 25 10 25 -5 0 -10 9
-10 20 0 13 -7 20 -19 20 -11 0 -26 3 -35 6 -9 3 -16 1 -16 -5 0 -6 14 -11 30
-11 17 0 30 -5 30 -10 0 -12 -69 -10 -76 2 -8 13 -46 9 -41 -4 2 -7 11 -12 20
-10 8 1 19 -3 23 -9 4 -7 3 -9 -3 -6 -6 4 -16 1 -22 -7 -13 -16 -54 -9 -44 7
4 6 1 7 -7 2 -10 -6 -12 -4 -7 8 4 11 1 17 -8 17 -22 0 -19 -9 28 -82 23 -37
47 -75 53 -85 11 -17 14 -16 43 12 17 16 29 35 27 42 -3 6 1 10 7 7 7 -2 20 8
29 23 21 36 76 88 84 80 3 -3 8 -59 11 -124 3 -65 6 -119 8 -121 1 -1 42 11
90 28 49 16 91 28 93 25 11 -10 -97 -235 -112 -235 -6 0 -23 8 -36 17 -14 9
-26 17 -28 18 -1 1 4 21 12 43 14 39 14 42 -2 42 -9 0 -30 -7 -46 -15 -16 -9
-30 -14 -32 -12 -2 1 -6 34 -9 72 -10 102 -10 103 -58 50 -23 -26 -46 -54 -50
-61 -14 -24 -23 -16 -67 51 -24 36 -44 64 -46 62 -2 -2 -9 -39 -15 -83 -6 -43
-12 -80 -14 -82 -2 -2 -27 9 -57 25 -73 39 -72 38 -53 10 18 -28 13 -35 -29
-33 -24 1 -34 10 -58 51 -50 89 -72 135 -66 140 3 3 46 -18 97 -46 51 -28 94
-49 97 -47 2 3 11 52 19 109 9 57 17 109 18 114 1 6 -3 11 -8 12 -19 5 -45 -8
-45 -23 0 -8 -4 -14 -9 -14 -5 0 -16 -3 -25 -6 -9 -3 -16 -1 -16 5 0 6 8 11
17 11 13 0 14 3 5 12 -8 8 -15 8 -24 0 -14 -11 -68 -5 -68 8 0 5 8 6 18 4 9
-3 28 -1 42 5 l25 10 -27 0 c-16 1 -28 7 -28 14 0 9 -2 9 -8 0 -12 -18 -74
-29 -70 -13 2 8 -11 18 -29 23 -34 10 -47 31 -15 25 9 -2 25 4 36 13 18 17 51
15 40 -2 -6 -10 9 -12 19 -3 9 10 -19 34 -40 34 -11 0 -28 -6 -39 -14 -17 -13
-23 -12 -51 5 -17 11 -37 18 -45 17 -7 -2 -12 4 -10 14 2 12 -2 16 -13 12 -8
-3 -15 -1 -15 5 0 6 -5 10 -11 8 -6 -1 -13 9 -15 23 -4 24 -4 24 10 5 23 -32
30 -10 12 37 -11 27 -15 61 -12 91 2 26 0 50 -5 53 -5 3 -9 16 -9 30 0 14 4
23 9 19 6 -3 6 8 0 29 -5 18 -9 49 -9 67 1 19 -2 84 -6 144 -3 61 -7 120 -8
132 l-1 22 -547 1 -548 0 0 -1600z m858 1525 c-3 -14 -1 -28 4 -31 12 -8 0
-24 -19 -24 -10 0 -13 6 -9 16 4 9 1 23 -5 30 -13 16 -4 34 18 34 11 0 14 -7
11 -25z m35 -41 c-4 -12 -8 -13 -14 -3 -9 15 -2 32 11 24 5 -3 6 -13 3 -21z
m-70 -24 c3 -11 1 -20 -4 -20 -5 0 -9 9 -9 20 0 11 2 20 4 20 2 0 6 -9 9 -20z
m47 -30 c0 -16 5 -30 10 -30 6 0 10 -4 10 -10 0 -5 -5 -9 -11 -7 -6 1 -14 -4
-16 -10 -3 -7 0 -13 7 -13 6 0 8 -5 4 -11 -12 -19 -24 13 -24 64 0 26 5 47 10
47 6 0 10 -13 10 -30z m-137 -25 c-3 -8 -9 -15 -14 -15 -10 0 -12 24 -3 33 11
11 24 -3 17 -18z m107 21 c0 -11 -19 -15 -25 -6 -3 5 1 10 9 10 9 0 16 -2 16
-4z m-25 -97 c-8 -11 27 -49 45 -49 5 0 10 -12 9 -27 l0 -28 -10 24 c-5 13
-12 22 -14 19 -8 -8 13 -58 24 -58 6 0 8 -7 5 -15 -3 -8 -1 -28 4 -45 18 -49
-2 -42 -21 8 -10 26 -25 62 -33 80 -8 18 -14 39 -14 47 0 8 -7 15 -15 15 -18
0 -19 12 -3 28 15 15 32 16 23 1z m65 -29 c0 -5 -4 -10 -10 -10 -5 0 -10 5
-10 10 0 6 5 10 10 10 6 0 10 -4 10 -10z m-83 -42 c-3 -8 -6 -5 -6 6 -1 11 2
17 5 13 3 -3 4 -12 1 -19z m90 -20 c-3 -7 -5 -2 -5 12 0 14 2 19 5 13 2 -7 2
-19 0 -25z m-107 13 c0 -17 -18 -21 -24 -6 -3 9 0 15 9 15 8 0 15 -4 15 -9z
m2065 -1 c-3 -5 -11 -10 -16 -10 -6 0 -7 5 -4 10 3 6 11 10 16 10 6 0 7 -4 4
-10z m-2024 -41 c9 -17 8 -20 -1 -14 -10 6 -11 1 -6 -19 4 -18 3 -25 -4 -21
-10 6 -15 75 -5 75 2 0 9 -10 16 -21z m1979 7 c0 -14 -24 -66 -30 -66 -14 0
-24 44 -11 48 6 2 9 8 5 13 -3 5 4 9 15 9 12 0 21 -2 21 -4z m-2020 -16 c0 -5
-2 -10 -4 -10 -3 0 -8 5 -11 10 -3 6 -1 10 4 10 6 0 11 -4 11 -10z m2050 -10
c-19 -13 -30 -13 -30 0 0 6 10 10 23 10 18 0 19 -2 7 -10z m-2050 -30 c0 -5
-7 -10 -16 -10 -8 0 -12 5 -9 10 3 6 10 10 16 10 5 0 9 -4 9 -10z m70 -10 c0
-5 -4 -10 -10 -10 -5 0 -10 5 -10 10 0 6 5 10 10 10 6 0 10 -4 10 -10z m1815
-20 c3 -5 -1 -10 -10 -10 -9 0 -13 5 -10 10 3 6 8 10 10 10 2 0 7 -4 10 -10z
m-1805 -10 c0 -5 -2 -10 -4 -10 -3 0 -8 5 -11 10 -3 6 -1 10 4 10 6 0 11 -4
11 -10z m1900 -10 c0 -5 -2 -10 -4 -10 -3 0 -8 5 -11 10 -3 6 -1 10 4 10 6 0
11 -4 11 -10z m35 -20 c3 -5 1 -10 -4 -10 -6 0 -11 5 -11 10 0 6 2 10 4 10 3
0 8 -4 11 -10z m-1906 -44 c9 -10 8 -15 -4 -20 -10 -4 -15 1 -15 14 0 24 4 25
19 6z m1551 -31 c0 -8 -4 -15 -9 -15 -5 0 -17 -7 -25 -16 -15 -14 -16 -13 -16
11 0 14 4 24 9 20 5 -3 12 -1 16 5 9 15 25 12 25 -5z m-1590 -25 c0 -5 -4 -10
-10 -10 -5 0 -10 5 -10 10 0 6 5 10 10 10 6 0 10 -4 10 -10z m1603 -27 c-7 -2
-19 -2 -25 0 -7 3 -2 5 12 5 14 0 19 -2 13 -5z m-1309 -64 c14 -7 23 -16 20
-21 -10 -15 6 -46 29 -53 20 -7 18 -8 -11 -12 -28 -4 -31 -7 -21 -19 6 -8 9
-17 6 -20 -10 -10 -39 5 -32 16 3 5 2 10 -3 10 -5 0 -12 11 -14 25 -3 14 -1
25 4 25 5 0 6 6 1 13 -9 14 -15 47 -8 47 2 0 15 -5 29 -11z m815 -98 c9 -6 11
-16 7 -27 -5 -13 -9 -15 -15 -6 -4 7 -16 19 -27 27 -19 14 -19 14 1 15 11 0
26 -4 34 -9z m61 -11 c0 -5 -7 -7 -15 -4 -8 4 -15 8 -15 10 0 2 7 4 15 4 8 0
15 -4 15 -10z m-750 -10 c0 -5 -4 -10 -10 -10 -5 0 -10 5 -10 10 0 6 5 10 10
10 6 0 10 -4 10 -10z m820 0 c0 -5 -10 -10 -22 -9 -22 0 -22 1 -3 9 11 5 21 9
23 9 1 1 2 -3 2 -9z m-912 -37 c-2 -10 -12 -19 -23 -20 -20 -3 -20 -3 0 6 17
8 18 10 3 10 -25 1 -22 21 3 21 14 0 19 -5 17 -17z m162 7 c0 -5 -4 -10 -9
-10 -6 0 -13 5 -16 10 -3 6 1 10 9 10 9 0 16 -4 16 -10z m-55 -24 c19 -29 11
-53 -20 -58 -43 -9 -60 29 -28 64 21 24 29 23 48 -6z m836 -72 c17 -21 0 -49
-32 -49 -24 0 -36 23 -25 51 7 19 40 18 57 -2z m-728 -199 c145 -18 255 -43
467 -106 241 -71 332 -91 450 -98 l105 -6 -35 -20 c-50 -27 -189 -32 -305 -11
-49 9 -205 48 -345 86 -140 38 -290 74 -333 80 -108 14 -270 12 -339 -4 -64
-16 -164 -59 -190 -83 -31 -28 -32 -6 -3 34 38 52 61 70 125 99 97 44 214 53
403 29z m-73 -116 c98 -12 247 -42 480 -98 205 -49 312 -69 449 -85 l106 -12
-55 -13 c-81 -20 -319 -26 -404 -11 -39 6 -120 25 -181 41 -60 16 -170 45
-243 65 -253 67 -395 81 -432 44 -27 -27 -25 -46 8 -79 38 -38 145 -56 297
-48 63 3 115 4 115 2 0 -2 -30 -13 -66 -25 -135 -41 -312 -15 -391 58 -66 61
-28 129 84 152 32 7 63 14 68 15 21 7 84 5 165 -6z m961 -306 c5 -13 9 -34 9
-46 0 -21 5 -23 54 -23 65 -1 110 -29 124 -77 6 -17 13 -93 17 -167 5 -125 4
-137 -15 -168 -11 -18 -36 -40 -55 -48 -72 -30 -181 -8 -203 41 -18 38 -46
483 -32 500 26 31 87 24 101 -12z m721 -45 c33 -12 64 -59 73 -111 15 -77 -44
-149 -133 -163 -49 -8 -60 -23 -44 -60 9 -18 19 -24 42 -24 24 0 35 8 55 40
27 43 53 51 79 24 21 -21 20 -47 -5 -95 -40 -79 -151 -100 -220 -42 -48 41
-56 68 -64 209 -9 166 3 198 92 230 39 14 76 11 125 -8z m-257 -18 c19 -21 14
-70 -8 -71 -113 -6 -111 0 -102 -206 l7 -172 -26 -12 c-20 -10 -30 -9 -49 4
-27 17 -30 36 -43 249 -6 98 -5 109 16 146 12 22 39 49 59 60 48 28 121 29
146 2z m-2407 -26 c28 -19 28 -41 0 -71 -18 -20 -19 -23 -5 -23 28 0 35 -34
52 -249 17 -225 16 -231 -41 -231 -26 0 -37 5 -43 23 -5 12 -17 114 -25 226
-17 211 -15 231 23 231 9 0 3 8 -16 20 -38 23 -41 42 -13 70 24 24 38 25 68 4z
m1759 -19 c39 -26 50 -70 58 -226 l7 -145 -26 -31 c-34 -40 -83 -57 -153 -51
-99 8 -110 33 -127 288 -5 74 -3 89 14 118 41 66 160 91 227 47z m-329 -22
c15 -11 32 -31 38 -44 13 -27 37 -369 28 -393 -7 -19 -67 -22 -82 -3 -5 6 -15
82 -21 168 -6 86 -13 164 -17 172 -12 33 -71 27 -80 -8 -3 -13 -1 -91 5 -175
5 -83 8 -157 4 -165 -7 -20 -47 -29 -71 -16 -23 12 -29 53 -38 262 -6 140 -6
145 16 173 13 15 37 35 54 42 43 20 130 13 164 -13z m-457 -3 c24 -14 25 -50
0 -126 -35 -111 -35 -112 9 -202 45 -94 50 -126 19 -142 -36 -20 -62 -8 -86
38 l-21 43 -14 -43 c-17 -49 -35 -63 -71 -54 -40 10 -41 37 -6 146 l33 99 -47
89 c-26 49 -47 96 -47 104 0 23 36 50 62 46 15 -2 30 -17 43 -40 19 -37 35
-49 35 -28 0 6 7 26 14 45 16 37 39 45 77 25z m-316 -39 c42 -24 53 -65 61
-232 6 -136 5 -145 -15 -170 -46 -58 -139 -76 -211 -39 -49 25 -56 47 -70 222
-12 144 -7 173 34 207 50 42 141 47 201 12z m-357 -11 c30 -14 47 -29 56 -52
20 -48 41 -375 25 -394 -14 -18 -63 -18 -77 -1 -6 7 -16 82 -23 167 -6 85 -15
163 -20 173 -12 21 -52 22 -69 2 -13 -15 -12 -60 6 -271 6 -68 5 -73 -17 -88
-28 -18 -65 -12 -74 12 -7 17 -34 290 -35 349 0 22 10 43 31 68 49 55 123 69
197 35z m2242 -489 c0 -5 -9 -11 -21 -14 -15 -4 -20 -12 -17 -29 2 -13 10 -23
18 -23 22 0 20 -59 -3 -63 -15 -3 -18 1 -13 16 4 11 0 24 -9 32 -15 12 -21 71
-8 83 10 10 53 8 53 -2z m82 -15 c13 -30 6 -51 -21 -65 -26 -14 -51 10 -51 48
0 34 6 41 37 41 15 0 27 -9 35 -24z m-1202 7 c0 -5 3 -38 6 -75 5 -48 3 -68
-5 -68 -6 0 -11 13 -11 29 0 15 -3 49 -6 75 -5 31 -3 46 5 46 6 0 11 -3 11 -7z
m195 -3 c-3 -5 -10 -10 -16 -10 -5 0 -9 5 -9 10 0 6 7 10 16 10 8 0 12 -4 9
-10z m653 -5 c-2 -5 -6 -9 -10 -7 -15 4 -8 -16 7 -22 20 -7 19 -52 -1 -60 -18
-7 -34 0 -34 16 0 5 7 8 15 4 9 -3 15 0 15 8 0 8 -7 16 -15 20 -15 6 -20 37
-8 50 10 10 35 3 31 -9z m97 -35 c0 -39 -3 -45 -22 -48 -15 -2 -23 -10 -23
-23 0 -10 -4 -19 -10 -19 -6 0 -10 30 -10 69 l0 68 33 -1 c31 -1 32 -2 32 -46z
m95 5 c0 -43 -1 -45 -30 -45 -35 0 -54 27 -44 65 5 21 12 25 40 25 34 0 34 -1
34 -45z m-249 8 c7 -21 5 -23 -21 -23 -30 0 -40 -13 -20 -25 6 -4 18 -1 27 6
13 11 15 11 12 -6 -5 -24 -34 -31 -54 -15 -16 13 -19 47 -9 75 10 24 55 15 65
-12z m-231 -3 c14 -26 5 -40 -26 -40 -14 0 -22 -4 -19 -10 3 -6 18 -7 33 -3
24 6 26 5 13 -10 -28 -35 -71 -10 -71 40 0 42 51 58 70 23z m40 -7 c0 -16 5
-35 10 -43 9 -13 11 -13 20 0 6 8 9 24 8 35 -1 11 2 21 7 23 6 1 11 -13 13
-32 2 -26 -2 -37 -17 -45 -26 -14 -48 -5 -55 22 -9 34 -7 67 4 67 6 0 10 -12
10 -27z m-240 -38 c0 -36 -4 -44 -22 -48 -27 -8 -44 6 -51 39 -6 33 23 65 52
57 17 -4 21 -13 21 -48z m110 45 c0 -5 -8 -10 -17 -10 -14 0 -13 -3 5 -16 28
-19 26 -59 -2 -59 -11 0 -21 6 -24 13 -2 7 2 10 12 6 22 -9 20 8 -4 29 -11 9
-17 23 -14 32 7 17 44 21 44 5z m-1126 -31 c12 -59 7 -116 -10 -123 -30 -11
-45 -6 -55 21 -13 36 3 73 32 73 18 0 20 4 14 30 -4 17 -2 30 3 30 5 0 12 -14
16 -31z m926 17 c0 -8 -4 -18 -10 -21 -15 -10 -12 -35 5 -35 8 0 15 -7 15 -15
0 -10 -10 -15 -30 -15 -32 0 -36 9 -19 42 9 17 8 23 -5 30 -22 12 -11 28 20
28 14 0 24 -6 24 -14z m-1110 -25 c0 -15 3 -49 6 -74 6 -44 5 -46 -20 -53 -32
-8 -56 10 -56 41 0 36 11 55 31 55 14 0 19 7 19 30 0 17 5 30 10 30 6 0 10
-13 10 -29z m938 -3 c17 -36 1 -68 -34 -68 -40 0 -55 68 -20 92 19 14 40 4 54
-24z m60 18 c-12 -8 -18 -27 -18 -50 0 -22 -4 -35 -10 -31 -5 3 -10 26 -10 51
0 41 2 44 28 44 24 -1 25 -2 10 -14z m42 -31 c0 -25 -4 -45 -10 -45 -5 0 -10
20 -10 45 0 25 5 45 10 45 6 0 10 -20 10 -45z m-1167 -48 c5 -52 3 -67 -6 -64
-8 2 -13 31 -15 78 -4 93 13 82 21 -14z m37 62 c0 -5 -4 -9 -10 -9 -5 0 -10 7
-10 16 0 8 5 12 10 9 6 -3 10 -10 10 -16z m805 -16 c-12 -66 -21 -71 -44 -25
-24 46 -25 52 -12 52 5 0 13 -9 16 -20 8 -25 25 -26 25 -2 0 18 8 32 18 32 2
0 1 -17 -3 -37z m93 -7 c4 -40 -8 -56 -41 -56 -23 0 -41 41 -33 75 6 22 11 26
39 23 29 -3 32 -6 35 -42z m-220 22 c22 -22 14 -48 -13 -48 -14 0 -25 -5 -25
-11 0 -7 10 -9 26 -5 19 5 25 3 22 -6 -3 -7 -17 -14 -31 -16 -21 -3 -30 3 -39
22 -22 50 25 99 60 64z m-958 -25 c17 -21 21 -37 17 -65 -3 -21 -1 -41 4 -44
22 -13 5 -21 -38 -17 -58 6 -83 31 -83 81 0 69 60 96 100 45z m782 2 c10 -32
9 -115 -2 -115 -5 0 -10 9 -10 21 0 16 -4 19 -19 14 -34 -10 -57 65 -29 93 17
17 52 10 60 -13z m43 -16 c8 -49 29 -47 33 4 4 49 22 48 22 -1 0 -42 -14 -62
-42 -62 -20 0 -38 36 -38 76 0 39 18 28 25 -17z m-185 16 c16 -20 5 -45 -20
-45 -11 0 -20 -5 -20 -10 0 -6 11 -8 26 -4 20 5 25 3 22 -7 -2 -8 -17 -15 -31
-17 -21 -3 -29 2 -37 22 -20 53 27 101 60 61z m-172 -48 c2 -26 -1 -47 -7 -47
-5 0 -16 -3 -24 -6 -35 -13 -64 65 -35 94 7 7 24 11 38 9 22 -3 25 -9 28 -50z
m-265 -9 c7 -50 0 -61 -39 -56 -25 3 -29 8 -32 36 -5 48 3 62 36 62 27 0 30
-4 35 -42z m82 1 c6 -36 2 -60 -9 -48 -10 11 -17 89 -8 89 6 0 13 -18 17 -41z
m-225 -10 c0 -19 5 -29 15 -29 10 0 15 11 15 35 0 19 5 35 11 35 6 0 9 -17 7
-41 -6 -79 -68 -76 -68 3 0 24 4 37 10 33 6 -3 10 -19 10 -36z m1522 -174 c0
-5 -5 -11 -11 -13 -6 -2 -11 4 -11 13 0 9 5 15 11 13 6 -2 11 -8 11 -13z m62
-47 c3 -37 2 -66 -4 -72 -15 -15 -20 -4 -27 68 -5 55 -3 66 9 66 11 0 17 -16
22 -62z m459 15 c10 -34 4 -63 -13 -63 -5 0 -10 12 -10 28 0 15 -4 33 -9 41
-14 22 -33 1 -29 -31 3 -16 0 -32 -5 -35 -12 -7 -27 16 -27 45 0 13 -6 22 -15
22 -11 0 -15 -11 -15 -41 0 -53 -24 -48 -28 5 -5 59 -1 62 74 61 68 0 68 0 77
-32z m-176 -3 c16 -32 -3 -64 -41 -68 -35 -4 -56 14 -56 49 0 52 73 66 97 19z
m-833 9 c56 -26 55 -113 -1 -124 -15 -4 -37 -8 -48 -10 -10 -2 -27 3 -37 12
-38 34 -11 85 47 89 l38 3 -6 -40 c-6 -46 12 -50 24 -6 10 36 -12 57 -60 57
-25 0 -44 -7 -56 -20 -23 -25 -22 -80 1 -97 25 -18 90 -16 119 3 31 20 33 1 3
-20 -30 -22 -112 -21 -133 1 -50 50 -36 120 30 149 37 16 48 17 79 3z m714 -8
c3 -10 -3 -11 -28 -6 -30 7 -31 6 -28 -22 3 -28 8 -30 42 -17 14 5 17 3 14
-12 -4 -22 -39 -30 -67 -14 -24 12 -29 58 -9 78 16 16 70 11 76 -7z m-291 1
c7 -5 16 -28 19 -53 l6 -44 -43 0 c-38 0 -44 3 -47 22 -2 15 5 27 25 38 l28
16 -27 -6 c-30 -6 -36 3 -16 23 14 14 37 15 55 4z m71 -45 c2 -37 0 -47 -12
-47 -12 0 -16 12 -16 51 0 66 24 62 28 -4z m-768 28 c0 -8 -4 -15 -9 -15 -13
0 -22 16 -14 24 11 11 23 6 23 -9z m600 -5 c16 -29 13 -80 -5 -80 -10 0 -15
10 -15 28 0 15 -4 33 -9 40 -13 21 -33 -11 -26 -41 4 -14 2 -28 -4 -32 -11 -6
-15 0 -26 48 -8 39 -30 29 -31 -14 0 -23 -5 -34 -15 -34 -10 0 -15 14 -17 47
-3 44 -2 47 25 50 83 9 113 6 123 -12z m-730 -6 c0 -9 -5 -14 -12 -12 -18 6
-21 28 -4 28 9 0 16 -7 16 -16z m558 -53 l-3 -66 -39 0 c-24 0 -41 5 -44 14
-3 10 3 12 26 6 19 -4 33 -2 38 6 5 9 1 11 -14 7 -31 -8 -62 18 -62 52 0 34
20 48 67 47 l34 -1 -3 -65z m-334 43 c26 -10 18 -27 -9 -22 -14 3 -25 2 -25
-2 0 -4 14 -10 30 -13 22 -5 30 -12 30 -27 0 -28 -40 -46 -69 -31 -31 17 -25
31 12 26 l32 -5 -32 10 c-25 8 -33 16 -33 34 0 31 28 44 64 30z m-630 -35 c11
-55 7 -111 -6 -106 -9 2 -13 24 -13 60 0 32 -3 57 -7 57 -5 0 -8 5 -8 10 0 25
28 7 34 -21z m496 16 c0 -8 -7 -15 -15 -15 -10 0 -15 -11 -15 -35 0 -24 -5
-35 -15 -35 -11 0 -15 11 -15 43 0 51 1 52 34 55 17 1 26 -3 26 -13z m48 -38
c2 -37 0 -47 -12 -47 -12 0 -16 12 -16 51 0 66 24 62 28 -4z m-219 35 c26 16
36 6 21 -22 -9 -18 -8 -25 6 -41 22 -24 10 -38 -17 -20 -18 10 -23 10 -33 -5
-20 -26 -40 -8 -21 19 13 19 13 23 -1 38 -19 21 -9 46 11 29 10 -8 19 -8 34 2z
m85 -14 c11 -42 7 -78 -9 -78 -10 0 -15 10 -15 28 0 15 -3 37 -6 50 -5 16 -2
22 9 22 8 0 17 -10 21 -22z m1001 -8 c-5 -8 -11 -8 -17 -2 -6 6 -7 16 -3 22 5
8 11 8 17 2 6 -6 7 -16 3 -22z m-1170 0 c40 -45 -20 -109 -71 -75 -16 10 -24
25 -24 45 0 48 61 68 95 30z m-117 -44 c2 -36 0 -47 -10 -44 -7 3 -14 21 -16
41 -3 40 -3 40 -25 31 -11 -4 -14 -15 -10 -40 4 -27 2 -34 -10 -34 -10 0 -18
12 -23 35 -9 52 -2 62 48 61 l43 -1 3 -49z"/>
<path d="M2302 1448 c-13 -13 -16 -146 -4 -213 6 -33 11 -40 33 -43 51 -6 60
18 53 136 -4 59 -11 113 -17 120 -12 15 -49 16 -65 0z"/>
<path d="M2891 1486 c-7 -8 -11 -27 -9 -43 2 -23 8 -29 34 -31 37 -4 57 16 52
55 -2 23 -8 29 -34 31 -18 2 -36 -3 -43 -12z"/>
<path d="M1990 1442 c-8 -3 -18 -10 -22 -16 -9 -13 -9 -145 0 -206 6 -41 10
-45 38 -48 50 -5 56 11 47 138 -7 97 -11 114 -28 125 -11 7 -27 10 -35 7z"/>
<path d="M870 1365 c-10 -12 -11 -43 -6 -127 4 -62 10 -116 12 -120 9 -14 61
-9 74 7 17 21 -1 233 -21 246 -21 13 -45 11 -59 -6z"/>
<path d="M2910 925 c0 -20 4 -26 18 -23 9 2 17 12 17 23 0 11 -8 21 -17 23
-14 3 -18 -3 -18 -23z"/>
<path d="M2662 914 c2 -15 9 -29 16 -32 10 -3 13 4 10 24 -2 15 -9 29 -16 32
-10 3 -13 -4 -10 -24z"/>
<path d="M2746 931 c-9 -14 4 -41 20 -41 8 0 14 10 14 25 0 25 -23 35 -34 16z"/>
<path d="M2510 919 c0 -5 5 -7 10 -4 6 3 10 8 10 11 0 2 -4 4 -10 4 -5 0 -10
-5 -10 -11z"/>
<path d="M2280 910 c0 -5 5 -10 10 -10 6 0 10 5 10 10 0 6 -4 10 -10 10 -5 0
-10 -4 -10 -10z"/>
<path d="M2070 875 c0 -16 6 -25 15 -25 9 0 15 9 15 25 0 16 -6 25 -15 25 -9
0 -15 -9 -15 -25z"/>
<path d="M1056 825 c-8 -21 1 -35 20 -35 10 0 14 8 12 22 -4 27 -23 34 -32 13z"/>
<path d="M874 817 c-8 -21 1 -47 16 -47 19 0 23 31 7 48 -15 14 -17 14 -23 -1z"/>
<path d="M1811 871 c-8 -14 -7 -22 5 -32 21 -17 37 7 23 33 -12 23 -16 23 -28
-1z"/>
<path d="M1675 860 c-8 -27 10 -49 26 -33 13 13 8 45 -8 50 -6 2 -14 -6 -18
-17z"/>
<path d="M1475 860 c-3 -5 1 -10 10 -10 9 0 13 5 10 10 -3 6 -8 10 -10 10 -2
0 -7 -4 -10 -10z"/>
<path d="M476 834 c-11 -28 -6 -50 12 -67 24 -22 34 -21 30 1 -2 11 3 16 15
14 19 -3 23 19 7 49 -13 23 -55 25 -64 3z"/>
<path d="M1280 831 c0 -24 18 -37 31 -24 13 13 1 43 -17 43 -8 0 -14 -9 -14
-19z"/>
<path d="M1150 840 c0 -5 7 -10 16 -10 8 0 12 5 9 10 -3 6 -10 10 -16 10 -5 0
-9 -4 -9 -10z"/>
<path d="M963 814 c-8 -21 13 -42 28 -27 13 13 5 43 -11 43 -6 0 -13 -7 -17
-16z"/>
<path d="M704 806 c-8 -21 3 -49 16 -41 5 3 10 15 10 25 0 25 -18 36 -26 16z"/>
<path d="M2417 583 c-11 -10 -8 -41 4 -49 6 -3 18 1 27 9 13 13 13 19 2 31
-14 17 -23 20 -33 9z"/>
<path d="M1582 528 c-7 -7 -12 -20 -12 -31 0 -24 33 -19 38 7 5 24 -11 39 -26
24z"/>
<path d="M2035 519 c-9 -14 -2 -20 14 -10 8 6 9 11 3 15 -6 3 -14 1 -17 -5z"/>
<path d="M1732 518 c2 -12 10 -23 18 -23 22 0 19 39 -3 43 -15 3 -18 -1 -15
-20z"/>
<path d="M1012 468 c2 -15 10 -23 23 -23 30 0 27 39 -3 43 -20 3 -23 0 -20
-20z"/>
<path d="M2813 3003 c-20 -7 -15 -23 7 -23 11 0 20 4 20 9 0 13 -12 19 -27 14z"/>
<path d="M2728 2893 c7 -3 16 -2 19 1 4 3 -2 6 -13 5 -11 0 -14 -3 -6 -6z"/>
<path d="M2510 2840 c0 -5 5 -10 11 -10 5 0 7 5 4 10 -3 6 -8 10 -11 10 -2 0
-4 -4 -4 -10z"/>
<path d="M2277 2749 c7 -7 15 -10 18 -7 3 3 -2 9 -12 12 -14 6 -15 5 -6 -5z"/>
<path d="M2331 2694 c0 -11 3 -14 6 -6 3 7 2 16 -1 19 -3 4 -6 -2 -5 -13z"/>
<path d="M2395 2701 c-3 -5 -1 -12 5 -16 5 -3 10 1 10 9 0 18 -6 21 -15 7z"/>
<path d="M2440 2699 c0 -5 5 -7 10 -4 6 3 10 8 10 11 0 2 -4 4 -10 4 -5 0 -10
-5 -10 -11z"/>
<path d="M2435 2670 c3 -5 8 -10 11 -10 2 0 4 5 4 10 0 6 -5 10 -11 10 -5 0
-7 -4 -4 -10z"/>
<path d="M2276 2663 c-11 -11 -6 -23 9 -23 8 0 15 4 15 9 0 13 -16 22 -24 14z"/>
<path d="M2185 2620 c-3 -5 -2 -10 4 -10 5 0 13 5 16 10 3 6 2 10 -4 10 -5 0
-13 -4 -16 -10z"/>
<path d="M2249 2613 c0 -10 -3 -13 -6 -5 -8 21 -25 13 -18 -10 6 -17 4 -20 -9
-15 -11 4 -15 3 -11 -4 4 -6 13 -8 21 -5 8 3 14 1 14 -4 0 -6 4 -10 9 -10 12
0 20 59 9 66 -4 3 -8 -3 -9 -13z"/>
<path d="M2200 2546 c0 -9 5 -16 10 -16 6 0 10 4 10 9 0 6 -4 13 -10 16 -5 3
-10 -1 -10 -9z"/>
<path d="M1210 2540 c0 -22 20 -40 45 -39 14 0 16 2 5 6 -8 4 -22 16 -32 27
-13 16 -17 18 -18 6z"/>
<path d="M1240 2546 c0 -2 7 -7 16 -10 8 -3 12 -2 9 4 -6 10 -25 14 -25 6z"/>
<path d="M2146 2535 c-11 -8 -15 -15 -9 -15 6 0 16 7 23 15 16 19 11 19 -14 0z"/>
<path d="M2165 2510 c-3 -5 -2 -10 4 -10 5 0 13 5 16 10 3 6 2 10 -4 10 -5 0
-13 -4 -16 -10z"/>
<path d="M1830 2495 c0 -8 -4 -15 -8 -15 -5 0 -9 -7 -9 -16 0 -13 4 -12 16 5
14 17 21 19 53 12 26 -6 37 -5 35 3 -5 26 -87 37 -87 11z"/>
<path d="M1939 2478 c5 -13 16 -24 25 -24 13 -2 13 -1 1 3 -8 2 -15 13 -15 24
0 10 -4 19 -10 19 -6 0 -6 -9 -1 -22z"/>
<path d="M1970 2485 c0 -8 2 -15 4 -15 2 0 6 7 10 15 3 8 1 15 -4 15 -6 0 -10
-7 -10 -15z"/>
<path d="M2113 2490 c-32 -13 -29 -19 10 -18 17 1 26 3 19 5 -6 3 -10 9 -6 14
6 11 6 11 -23 -1z"/>
<path d="M1366 2465 c-3 -8 -1 -15 3 -15 5 0 11 7 15 15 3 8 1 15 -3 15 -5 0
-11 -7 -15 -15z"/>
<path d="M2020 2450 c0 -5 5 -10 10 -10 6 0 10 5 10 10 0 6 -4 10 -10 10 -5 0
-10 -4 -10 -10z"/>
<path d="M2110 2450 l-35 -7 43 -2 c23 0 42 4 42 9 0 6 -3 9 -7 9 -5 -1 -24
-5 -43 -9z"/>
<path d="M1310 2440 c0 -5 7 -10 16 -10 8 0 12 5 9 10 -3 6 -10 10 -16 10 -5
0 -9 -4 -9 -10z"/>
<path d="M1444 2435 c10 -8 23 -12 27 -9 5 3 9 0 9 -5 0 -6 -8 -11 -17 -12
-11 0 -13 -2 -5 -6 7 -3 20 -2 29 1 14 6 14 8 -2 26 -10 11 -28 20 -39 20 -20
-1 -20 -1 -2 -15z"/>
<path d="M1560 2441 c0 -5 7 -11 14 -14 10 -4 13 -1 9 9 -6 15 -23 19 -23 5z"/>
<path d="M1607 2416 c-6 -16 2 -28 14 -20 12 7 11 34 0 34 -5 0 -11 -6 -14
-14z"/>
<path d="M1645 2420 c3 -5 13 -10 21 -10 8 0 12 5 9 10 -3 6 -13 10 -21 10 -8
0 -12 -4 -9 -10z"/>
</g>
</svg>
