<svg width="629" height="375" viewBox="0 0 629 375" fill="none" xmlns="http://www.w3.org/2000/svg">
<path d="M295.542 67.6176C292.531 86.0615 291.017 91.4812 289.13 92.0858C288.455 92.3303 281.115 88.3523 272.874 83.4106C264.633 78.4689 257.685 74.7706 257.4 75.2949C256.961 76.481 270.245 102.401 272.436 104.741C273.471 105.709 275.99 106.193 278.535 105.877C282.017 105.458 282.843 104.685 282.927 102.153C283.059 98.1552 283.725 98.1772 290.785 102.546C300.328 108.465 300.879 107.949 302.407 93.9922C303.161 87.3468 304.172 80.9768 304.735 80.0616C306.143 77.8402 311.164 83.3424 316.19 92.7136C318.204 96.3822 320.763 99.6685 321.825 99.837C322.882 100.139 327.016 96.1399 331.182 91.2082C341.883 78.2213 342.936 78.6564 343.901 97.8988C344.433 110.056 344.428 110.19 353.462 107.286C360.876 104.997 362.075 105.037 360.783 107.795C360.206 109.11 358.888 112.669 357.72 115.698L355.803 121.238L360.108 124.182C362.458 125.727 365.217 127.019 366.016 127.045C366.949 127.076 369.187 123.949 371.052 120.008C372.916 116.067 377.058 107.8 380.202 101.5C383.478 95.205 386.066 89.5541 386.088 88.8878C386.137 87.422 384.409 87.2314 382.628 88.64C381.94 89.2843 375.726 91.6136 368.717 93.7832C356.587 97.5177 355.916 97.629 354.263 95.173C353.117 93.5342 352.755 88.3194 352.917 79.3866C353.164 71.924 352.913 63.3777 352.615 60.2995L351.871 54.5384L344.935 62.5803C333.145 76.1982 323.367 85.4801 321.656 84.7566C320.737 84.3259 315.52 76.6827 310.076 67.8313C304.636 58.8467 299.81 51.4832 299.277 51.4656C298.744 51.448 297.036 58.7288 295.542 67.6176Z" fill="url(#paint0_linear_1_62)"/>
<path d="M293.383 36.0624C289.564 38.6043 289.498 40.6032 293.501 44.6043C296.082 47.2244 297.006 47.5217 298.787 46.1131C301.252 44.1935 301.721 38.0724 299.531 35.732C297.598 33.667 297.065 33.6494 293.383 36.0624Z" fill="#DC2A15"/>
<path d="M352.058 40.8038C349.9 41.5329 349.551 48.0582 351.612 50.2609C354.963 53.8402 362.016 50.338 362.187 45.1408C362.306 41.5428 356.518 39.0835 352.058 40.8038Z" fill="#DC2A15"/>
<path d="M247.744 60.7012C244.538 64.8642 244.801 69.0085 248.471 70.9975C253.704 74.1054 256.551 72.7321 256.607 66.9975C256.619 58.5932 251.794 55.232 247.744 60.7012Z" fill="#DC2A15"/>
<path d="M389.154 76.8492C382.857 81.7105 388.803 91.5123 395.603 87.6015C400.772 84.5707 400.278 79.3515 394.387 75.955C392.818 74.9693 391.344 75.1873 389.154 76.8492Z" fill="#DC2A15"/>
<path d="M219.506 107.794C208.108 109.552 196.308 115.431 188.181 123.167C184.046 127.166 180.574 131.32 180.534 132.52C180.473 134.385 180.872 134.398 183.612 132.221C188.964 127.729 203.039 121.657 213.925 119.216C221.854 117.477 228.805 117.039 243.069 117.378C269.992 118.134 282.31 120.809 333.793 137.32C376.031 150.989 391.25 154.694 410.68 156.137C427.844 157.505 438.304 155.85 444.881 150.598L448.581 147.651L431.394 146.95C412.738 146.333 394.432 143.193 377.275 137.557C328.978 121.552 302.808 114.15 281.188 110.367C265.676 107.453 230.37 106.019 219.506 107.794Z" fill="url(#paint1_linear_1_62)"/>
<path d="M221.39 127.467C214.67 128.979 206.249 133.503 203.194 137.138C198.611 142.589 199.239 147.813 205.046 153.741C212.92 161.739 223.346 165.152 244.242 166.643C259.944 167.829 262.752 167.655 270.969 165.259C280.398 162.502 288.153 157.956 281.037 159.322C263.448 162.742 248.256 162.24 228.79 157.861C213.957 154.569 205.555 146.421 209.662 139.219C215.323 129.401 243.069 133.52 306.568 153.762C343.67 165.395 356.513 168.354 378.879 169.76C394.319 170.805 402.324 170.802 412.913 169.285C435.424 166.294 434.789 165.339 408.469 162.468C402.619 161.874 390.421 159.603 381.283 157.567C364.331 153.804 357.983 152.127 318.98 141.499C279.714 130.729 269.773 128.8 246.732 127.638C235.014 126.983 223.678 126.875 221.39 127.467Z" fill="url(#paint2_linear_1_62)"/>
<path d="M409.337 219.89L409.337 219.89C409.234 241.02 409.264 251.846 410.418 258.07C410.99 261.161 411.832 263.062 413.035 264.515C414.25 265.981 415.865 267.032 418.091 268.375C421.481 270.407 426.163 271.623 430.95 271.919C435.736 272.216 440.568 271.588 444.251 269.991L444.254 269.99C445.702 269.375 447.506 268.185 449.247 266.772C450.984 265.362 452.626 263.755 453.757 262.327C453.757 262.326 453.758 262.325 453.759 262.324L457.862 256.984L457.55 234.161L457.55 234.16C457.396 220.443 456.938 212.232 455.489 206.888C454.769 204.23 453.809 202.306 452.537 200.774C451.264 199.241 449.653 198.072 447.585 196.958C444.556 195.336 439.372 193.957 435.039 193.689L427.453 193.22L427.006 193.192L426.985 192.745L426.631 185.516C426.413 182.564 426.129 180.788 425.612 179.57C425.115 178.401 424.39 177.721 423.165 177.009C421.31 176.036 420.049 175.561 418.777 175.467C417.501 175.372 416.158 175.657 414.127 176.328C413.39 176.583 412.615 177.088 411.943 177.711C411.278 178.328 410.749 179.029 410.47 179.659C410.455 179.711 410.431 179.823 410.404 180.016C410.374 180.221 410.343 180.491 410.312 180.824C410.25 181.489 410.187 182.39 410.124 183.501C409.999 185.723 409.878 188.77 409.768 192.427C409.549 199.739 409.381 209.476 409.337 219.89ZM440.18 211.462L440.195 211.481L441.424 232.992L441.924 232.997C441.924 232.997 441.924 232.997 441.924 232.998C441.838 241.923 441.748 246.672 441.321 249.462C441.106 250.868 440.799 251.825 440.335 252.584C439.871 253.343 439.272 253.864 438.564 254.427C436.846 255.81 434.487 256.532 432.276 256.587C430.078 256.641 427.902 256.035 426.64 254.607C426.348 254.277 426.121 253.756 425.931 253.144C425.736 252.515 425.562 251.727 425.41 250.807C425.105 248.968 424.875 246.562 424.729 243.772C424.438 238.189 424.48 231.027 424.933 223.693C425.118 219.628 425.394 216.771 425.844 214.734C426.295 212.694 426.935 211.41 427.896 210.56C429.513 209.132 431.934 208.591 434.23 208.768C436.526 208.945 438.822 209.848 440.18 211.462Z" fill="#F2EB89" stroke="url(#paint3_linear_1_62)"/>
<path d="M510.247 229.882L510.247 229.885C509.767 248.447 510.171 252.768 512.097 257.449C518.157 271.704 536.824 276.895 548.761 267.579L548.765 267.576C553.536 263.919 556.614 259.458 557.74 255.381C558.865 251.311 558.041 247.696 555.129 245.525C553.696 244.483 552.984 244.072 552.296 244.043C551.605 244.014 550.84 244.364 549.285 245.289L549.268 245.3L549.25 245.308C548.355 245.749 547.311 246.574 546.352 247.545C545.395 248.513 544.557 249.591 544.058 250.508C543.496 251.54 542.555 252.661 541.504 253.653C540.451 254.647 539.259 255.542 538.172 256.106L538.158 256.113L538.144 256.119C536.438 256.876 535.274 257.301 534.121 257.229C532.963 257.158 531.892 256.592 530.357 255.633L530.357 255.633L530.349 255.629C528.84 254.648 527.834 253.727 527.231 252.434C526.636 251.159 526.463 249.585 526.466 247.371C526.466 247.37 526.466 247.369 526.466 247.368L526.412 241.759L526.408 241.295L526.871 241.256L533.316 240.72L533.32 240.72C542.86 239.991 549.344 236.586 554.206 229.948C556.027 227.46 557.1 225.742 557.701 224.051C558.297 222.373 558.44 220.685 558.328 218.237L558.327 218.237L558.327 218.224C558.166 210.182 554.939 202.776 549.995 198.428C547.047 195.919 542.481 194.22 537.673 193.576C532.865 192.932 527.896 193.355 524.159 195.005C521.088 196.373 516.93 199.792 514.651 202.669L510.671 208.026L510.247 229.882ZM540.071 209.932L540.078 209.936L540.084 209.94C541.072 210.589 541.735 211.417 542.109 212.571C542.474 213.7 542.554 215.116 542.442 216.933C542.239 220.202 541.643 222.435 540.058 223.747C538.485 225.048 536.077 225.322 532.618 225.108C530.305 224.965 528.768 224.744 527.749 224.173C526.657 223.56 526.226 222.592 525.96 221.251C525.447 218.662 525.312 216.697 525.719 215.025C526.131 213.332 527.085 212 528.616 210.647C530.244 209.209 532.097 208.397 534.064 208.27C536.029 208.142 538.069 208.699 540.071 209.932Z" fill="#F2EB89" stroke="url(#paint4_linear_1_62)"/>
<path d="M467.256 267.195L467.263 267.208L467.269 267.222C468.539 270.066 471.207 271.75 473.938 272.109C476.671 272.468 479.388 271.496 480.825 269.128L480.832 269.116L480.84 269.104C481.103 268.722 481.36 267.959 481.581 266.638C481.799 265.338 481.971 263.566 482.108 261.227C482.38 256.549 482.507 249.656 482.58 239.84L482.779 212.868L482.781 212.626L482.972 212.477L486.621 209.631L486.627 209.626L486.633 209.622C489.266 207.69 492.241 206.914 496.323 207.166C500.129 207.402 502.814 206.675 504.312 205.323C505.765 204.011 506.214 202 505.296 199.331C504.16 196.077 501.789 193.895 498.491 192.858C495.174 191.816 490.897 191.927 485.993 193.339C478.212 195.624 471.602 200.869 468.759 206.811C466.489 211.888 466.29 214.825 466.155 238.633C466.172 245.911 466.282 252.757 466.478 257.954C466.575 260.553 466.694 262.735 466.832 264.349C466.902 265.157 466.975 265.817 467.052 266.312C467.134 266.834 467.21 267.106 467.256 267.195Z" fill="#F2EB89" stroke="url(#paint5_linear_1_62)"/>
<path d="M353.884 228.759L353.884 228.762C353.464 243.113 353.427 251.273 354.26 256.512C354.674 259.118 355.299 260.973 356.184 262.494C357.069 264.015 358.23 265.233 359.764 266.547L359.764 266.548C361.844 268.336 363.186 269.302 365.198 269.919C367.245 270.547 370.005 270.82 374.942 271.126C379.674 271.419 382.488 271.491 384.736 271.142C386.956 270.798 388.646 270.04 391.118 268.604L391.119 268.603C395.57 266.039 398.185 263.645 399.724 259.586C401.284 255.474 401.756 249.613 401.746 240.053L401.746 240.051C401.803 225.08 401.699 216.529 400.976 211.082C400.615 208.366 400.103 206.45 399.395 204.908C398.69 203.372 397.779 202.182 396.58 200.93C389.937 194.109 381.577 191.869 370.627 193.962C367.763 194.557 363.277 197.023 359.927 199.983L354.438 204.832L353.884 228.759ZM383.029 254.426L383.029 254.426L383.024 254.43C381.417 255.986 378.999 256.741 376.737 256.774C374.491 256.808 372.239 256.13 371.048 254.621L371.041 254.612L371.035 254.604C370.882 254.393 370.758 254.103 370.651 253.782C370.541 253.452 370.437 253.051 370.339 252.593C370.142 251.677 369.961 250.501 369.798 249.14C369.471 246.415 369.21 242.912 369.039 239.187C368.697 231.746 368.711 223.364 369.283 218.482L369.283 218.477C369.675 215.378 370.029 213.443 370.683 212.123C371.368 210.742 372.362 210.065 373.853 209.398L373.856 209.396C376.121 208.402 377.735 207.901 379.229 208.105C380.735 208.311 382.02 209.217 383.668 210.726C384.324 211.321 384.86 211.911 385.263 212.752C385.663 213.584 385.915 214.627 386.07 216.109C386.379 219.056 386.313 223.901 386.107 232.623C385.913 241.148 385.75 245.98 385.346 248.962C385.143 250.459 384.876 251.523 384.497 252.368C384.113 253.224 383.627 253.831 383.029 254.426Z" fill="#F2EB89" stroke="url(#paint6_linear_1_62)"/>
<path d="M317.233 193.198L317.228 193.199C309.489 194.568 303.539 198.27 300.777 203.263C299.611 205.388 298.984 207.081 298.635 211.392C298.283 215.738 298.218 222.69 298.172 235.321L298.172 235.321C298.103 251.561 298.231 260.814 298.926 266.194C299.273 268.886 299.756 270.546 300.388 271.613C300.998 272.645 301.763 273.151 302.783 273.49C305.057 274.21 307.395 274.254 309.282 273.767C311.185 273.277 312.539 272.277 313.02 270.99C313.055 270.895 313.108 270.614 313.161 270.097C313.213 269.602 313.261 268.942 313.305 268.134C313.392 266.52 313.461 264.335 313.505 261.736C313.593 256.539 313.583 249.698 313.428 242.481C313.27 235.318 313.257 228.498 313.346 223.286C313.39 220.681 313.459 218.474 313.549 216.826C313.593 216.003 313.643 215.314 313.698 214.783C313.751 214.272 313.812 213.856 313.895 213.614L313.897 213.606L313.9 213.598C314.676 211.554 316.56 209.814 318.631 208.75C320.69 207.691 323.077 207.23 324.898 207.938C326.315 208.475 327.479 209.152 328.389 210.323C329.292 211.485 329.908 213.084 330.334 215.394C331.182 219.995 331.311 227.638 331.228 240.839C331.228 253.806 331.44 261.693 332.17 266.47C332.535 268.859 333.023 270.414 333.642 271.427C334.243 272.41 334.974 272.893 335.903 273.127L335.903 273.127L335.914 273.13C337.982 273.705 340.121 273.58 341.833 272.959C343.556 272.335 344.768 271.243 345.136 269.943L345.139 269.933L345.142 269.923C345.345 269.306 345.524 267.907 345.663 265.848C345.801 263.813 345.898 261.194 345.957 258.184C346.075 252.166 346.043 244.602 345.892 237.058C345.741 229.513 345.472 221.993 345.118 216.062C344.941 213.096 344.743 210.533 344.528 208.564C344.421 207.579 344.309 206.748 344.196 206.093C344.08 205.427 343.967 204.977 343.866 204.732L343.865 204.728C342.25 200.709 338.381 197.301 333.482 195.157C328.591 193.015 322.735 192.163 317.233 193.198Z" fill="#F2EB89" stroke="url(#paint7_linear_1_62)"/>
<path d="M87.5873 175.766L87.5779 175.775L87.568 175.784C86.9235 176.353 86.3357 177.191 85.8973 178.076C85.4571 178.963 85.1924 179.847 85.1526 180.49C85.116 181.082 85.2793 181.806 85.6141 182.582C85.9464 183.353 86.4341 184.144 87.0068 184.861C87.5799 185.578 88.2277 186.207 88.8724 186.663C89.5247 187.123 90.1338 187.378 90.6358 187.409C91.3569 187.453 91.9487 187.65 92.3139 188.039C92.7112 188.463 92.7467 189.011 92.5523 189.503C92.3661 189.973 91.9702 190.413 91.4541 190.775C90.9312 191.142 90.2547 191.453 89.4563 191.654L89.4462 191.656L89.436 191.658C88.8189 191.786 88.1374 192.206 87.5389 192.808C86.9437 193.406 86.4745 194.143 86.2536 194.84C86.2116 194.973 86.1558 195.35 86.1008 196.015C86.0477 196.656 85.9987 197.514 85.9545 198.564C85.8662 200.664 85.7979 203.519 85.7543 206.92C85.6671 213.722 85.679 222.701 85.8262 232.191C86.1011 246.103 86.358 254.889 86.7462 260.459C86.9404 263.245 87.1663 265.209 87.4396 266.601C87.7131 267.992 88.024 268.754 88.3514 269.187C89.6336 270.701 91.2872 271.51 93.09 271.621C94.9024 271.733 96.9018 271.142 98.8508 269.784C99.6296 269.223 100.131 268.848 100.502 268.301C100.868 267.761 101.135 267.007 101.309 265.651C101.659 262.913 101.602 257.982 101.479 248.065C101.092 221.914 100.803 207.728 100.096 200.044C99.7415 196.186 99.2865 194.043 98.7034 192.854C98.4191 192.275 98.119 191.954 97.8119 191.764C97.502 191.573 97.1362 191.485 96.6641 191.455C95.9294 191.41 95.307 191.252 94.8837 190.921C94.6635 190.749 94.4969 190.53 94.4072 190.265C94.3184 190.002 94.3156 189.727 94.3715 189.456C94.4803 188.93 94.8202 188.372 95.3072 187.806C95.8011 187.232 96.4827 186.608 97.3393 185.947C98.0644 185.365 98.7456 184.585 99.2545 183.777C99.7699 182.96 100.078 182.163 100.116 181.55C100.206 180.09 99.2712 178.219 97.7739 176.645C96.2835 175.079 94.3659 173.947 92.6775 173.842C91.9031 173.794 90.9276 173.977 89.9799 174.333C89.0328 174.689 88.1639 175.2 87.5873 175.766Z" fill="white" stroke="url(#paint8_linear_1_62)"/>
<path d="M239.647 200.833L239.647 200.833C240.59 202.975 241.558 204.831 242.371 206.08C242.774 206.698 243.158 207.198 243.5 207.507C243.666 207.657 243.865 207.803 244.088 207.866C244.207 207.899 244.347 207.913 244.496 207.877C244.648 207.84 244.774 207.757 244.871 207.651C245.061 207.442 245.281 207.077 245.509 206.645C245.746 206.199 246.015 205.636 246.299 204.996C246.868 203.715 247.506 202.105 248.079 200.458C248.64 198.843 249.337 197.201 249.982 195.853C250.626 194.507 251.197 193.503 251.519 193.097C252.282 192.328 253.464 191.959 254.887 191.964C256.314 191.969 257.92 192.353 259.423 193.012C260.927 193.671 262.296 194.592 263.263 195.642C264.232 196.695 264.758 197.833 264.689 198.946C264.685 199.005 264.653 199.176 264.568 199.492C264.488 199.791 264.372 200.183 264.224 200.66C263.926 201.611 263.503 202.882 262.985 204.384C261.949 207.388 260.539 211.304 259.016 215.415C259.016 215.415 259.016 215.416 259.016 215.416L259.484 215.59C256.445 223.684 253.839 231.271 253.773 232.336C253.707 233.4 256.09 240.227 258.98 247.486L239.647 200.833ZM239.647 200.833L239.642 200.82C237.965 196.722 236.336 194.198 234.572 192.95C232.869 191.745 230.964 191.682 228.536 192.744C226.896 193.506 225.752 194.194 225.029 195.023C224.331 195.824 223.995 196.795 224.07 198.212C224.147 199.657 224.65 201.542 225.631 204.125C226.61 206.702 228.047 209.933 229.962 214.059L229.962 214.059L229.965 214.065C231.905 218.4 233.652 222.626 234.904 225.954C235.529 227.617 236.033 229.062 236.376 230.186C236.547 230.748 236.68 231.237 236.768 231.636C236.852 232.021 236.905 232.369 236.889 232.627C236.862 233.066 236.642 233.891 236.309 234.944C235.969 236.021 235.489 237.398 234.905 238.977C233.739 242.137 232.154 246.121 230.432 250.162L230.431 250.164C228.643 254.315 227.167 258.282 226.177 261.392C225.682 262.948 225.311 264.283 225.084 265.315C224.97 265.831 224.893 266.264 224.855 266.608C224.815 266.957 224.82 267.172 224.841 267.279C224.899 267.52 225.063 267.842 225.35 268.225C225.634 268.605 226.018 269.016 226.476 269.43C227.391 270.26 228.57 271.077 229.759 271.667L229.759 271.667L229.77 271.673C231.794 272.742 232.896 273.187 233.743 273.21C234.534 273.232 235.172 272.887 236.29 272.025C236.912 271.53 237.711 270.453 238.492 269.061C239.265 267.685 239.988 266.058 240.475 264.521L240.475 264.519C241.099 262.578 241.685 261.062 242.254 259.982C242.539 259.442 242.827 258.995 243.125 258.656C243.421 258.319 243.752 258.057 244.128 257.939C244.966 257.675 245.665 258.199 246.203 258.952C246.754 259.723 247.287 260.923 247.827 262.502L247.828 262.503C249.516 267.463 251.444 270.437 253.664 271.724C255.825 272.976 258.41 272.704 261.662 270.753C262.684 270.119 263.369 269.434 263.764 268.536C264.163 267.63 264.294 266.445 264.082 264.761C263.655 261.368 261.87 256.175 258.515 247.67L239.647 200.833Z" fill="white" stroke="url(#paint9_linear_1_62)"/>
<path d="M170.388 203.346L170.388 203.346L170.384 203.354C169.636 204.644 169.094 205.626 168.691 206.754C168.291 207.879 168.022 209.17 167.855 211.069C167.52 214.889 167.601 221.071 167.792 233.121C167.99 243.962 168.167 250.261 168.579 254.319C168.99 258.353 169.628 260.117 170.729 261.907C177.361 272.462 193.295 275.222 206.017 267.707L206.018 267.706C211.824 264.292 215.327 258.137 215.234 251.229L215.234 251.226C215.12 235.791 214.876 224.631 214.485 216.936C214.29 213.089 214.058 210.115 213.788 207.911C213.516 205.688 213.211 204.301 212.893 203.588L212.893 203.586C211.268 199.908 207.23 196.714 202.208 194.687C197.199 192.666 191.304 191.846 186.074 192.831C178.889 194.227 173.46 197.817 170.388 203.346ZM196.338 208.453L196.34 208.455C197.924 209.607 198.884 211.892 199.461 215.831C200.042 219.798 200.253 225.588 200.204 233.936L200.204 233.937C200.138 241.468 200.042 245.774 199.671 248.479C199.485 249.839 199.226 250.826 198.85 251.629C198.471 252.439 197.986 253.035 197.391 253.627C195.552 255.454 192.644 256.206 190.02 256.044C187.422 255.883 184.876 254.803 183.941 252.698C183.669 252.119 183.455 251.092 183.277 249.806C183.095 248.492 182.943 246.84 182.819 244.971C182.573 241.231 182.442 236.595 182.425 231.995C182.409 227.395 182.508 222.823 182.723 219.212C182.83 217.407 182.967 215.834 183.135 214.615C183.218 214.006 183.311 213.477 183.413 213.048C183.512 212.632 183.631 212.265 183.784 212.01L183.784 212.01L183.789 212.002C185.192 209.771 187.391 208.225 189.696 207.56C191.998 206.897 194.457 207.101 196.338 208.453Z" fill="white" stroke="url(#paint10_linear_1_62)"/>
<path d="M121.548 194.543L121.548 194.544L121.539 194.547C119.31 195.463 117.706 196.4 116.383 197.63C115.059 198.86 113.989 200.406 112.866 202.579L112.866 202.579L112.861 202.587C111.45 205.197 110.736 206.857 110.371 210.375C110.002 213.942 109.996 219.385 110.036 229.554C110.125 246.468 110.256 255.669 110.722 261.032C110.955 263.714 111.269 265.4 111.688 266.597C112.1 267.773 112.618 268.493 113.302 269.234C114.888 270.889 116.326 271.691 117.798 271.797C119.278 271.904 120.906 271.316 122.887 269.935L125.748 267.876L125.295 240.991C125.295 240.991 125.295 240.991 125.295 240.991C125.135 231.693 125.166 224.704 125.35 219.826C125.443 217.388 125.573 215.47 125.74 214.05C125.823 213.341 125.915 212.749 126.018 212.275C126.119 211.81 126.237 211.425 126.384 211.152L126.392 211.137L126.401 211.123C128.664 207.533 132.456 206.239 135.801 206.889C139.149 207.54 142.049 210.142 142.502 214.277C142.764 216.601 143.055 229.209 143.187 242.155C143.318 251.918 143.511 257.953 143.901 261.843C144.292 265.744 144.875 267.393 145.71 268.467C147.555 270.819 150.471 271.537 152.984 270.94C155.495 270.344 157.525 268.462 157.698 265.666C157.89 262.565 157.74 248.289 157.477 234.45C157.345 227.538 157.185 220.747 157.026 215.531C156.946 212.923 156.867 210.712 156.791 209.077C156.753 208.259 156.717 207.588 156.682 207.085C156.646 206.574 156.614 206.27 156.59 206.156C156.139 204.233 154.834 202.02 153.041 199.99C151.251 197.964 149.011 196.163 146.745 195.05L146.744 195.049C143.592 193.49 139.018 192.608 134.341 192.5C129.665 192.393 124.96 193.062 121.548 194.543Z" fill="white" stroke="url(#paint11_linear_1_62)"/>
<path d="M512.367 294.123C509.217 298.247 509.64 305.607 513.325 311.849C515.906 316.186 516.228 317.707 514.846 318.615C513.597 319.532 513.838 320.048 515.967 320.189C518.496 320.357 518.938 319.553 518.812 314.212C518.935 309.222 518.338 307.849 516.342 307.717C514.346 307.585 513.615 306.203 513.563 302.034C513.442 299.193 514.111 296.572 514.776 296.616C515.583 296.503 516.923 296.425 517.597 296.303C518.395 296.355 519.112 295.403 519.421 294.59C520.098 291.803 514.376 291.424 512.367 294.123Z" fill="black"/>
<path d="M523.611 296.201C521.993 299.093 521.616 301.234 522.394 304.285C524.594 313.429 530.789 315.005 534.269 307.071C538.375 297.345 528.863 287.551 523.611 296.201ZM531.323 302.044C531.126 305.863 530.534 306.99 528.405 306.849C525.61 306.664 524.493 302.425 526.046 298.195C527.749 293.642 531.604 296.564 531.323 302.044Z" fill="black"/>
<path d="M482.806 292.499C480.775 293.031 480.265 295.164 479.701 306.124C479.334 313.264 479.666 319.785 480.306 320.327C481.07 321.044 481.697 319.253 481.85 316.264C482.064 312.112 482.648 311.151 484.485 311.773C490.672 313.515 494.674 300.617 489.907 294.636C487.524 291.645 486.867 291.435 482.806 292.499ZM488.565 302.545C488.369 306.364 487.777 307.492 485.647 307.351C483.651 307.218 482.921 305.837 482.868 301.668C482.725 296.66 483.017 296.179 485.786 296.862C488.165 297.353 488.77 298.56 488.565 302.545Z" fill="black"/>
<path d="M496.604 294.246C494.196 296.919 493.898 307.897 496.166 310.547C497.304 311.788 499.549 312.27 502.112 311.773C506.022 311.033 506.181 310.543 506.625 301.908L507.087 292.941L502.695 292.65C500.299 292.491 497.595 293.145 496.604 294.246ZM503.29 301.854C503.093 305.673 502.501 306.8 500.372 306.659C497.577 306.474 496.46 302.235 498.013 298.005C499.716 293.452 503.572 296.374 503.29 301.854Z" fill="black"/>
<path d="M328.887 288.973C329.107 292.487 329.156 299.322 328.917 303.971C328.584 310.448 328.996 312.808 330.327 312.896C331.791 312.993 332.185 310.52 332.106 301.683C332.051 287.183 331.599 282.987 329.869 282.873C328.804 282.802 328.56 284.952 328.887 288.973Z" fill="black"/>
<path d="M455.77 293.708C452.928 297.02 452.3 306.642 454.924 310.149C457.157 313.462 458.479 313.717 462.192 311.63C466.188 309.228 465.509 306.85 460.834 306.874C458.289 307.039 456.327 306.242 456.129 304.896C455.798 303.541 457.163 302.965 460.49 303.186C465.281 303.503 465.422 303.346 464.713 298.966C463.93 293.416 464.295 294.106 460.904 292.549C459.075 291.761 457.186 292.136 455.77 293.708ZM461.412 298.248C461.369 299.078 460.395 299.847 459.33 299.776C458.265 299.706 457.376 298.814 457.419 297.983C457.47 296.987 458.436 296.384 459.501 296.455C460.565 296.525 461.463 297.251 461.412 298.248Z" fill="black"/>
<path d="M469.279 293.27C467.305 295.305 468.113 300.358 470.539 302.518C473.987 305.579 473.782 309.564 470.124 307.989C468.171 307.027 467.488 307.315 467.811 308.836C468.142 310.191 469.812 311.468 471.658 311.923C476.939 313.106 478.478 306.543 474.059 301.585C470.147 297.16 469.967 295.482 473.693 295.728C475.157 295.825 475.998 295.048 475.642 294.191C474.804 292.303 470.695 291.698 469.279 293.27Z" fill="black"/>
<path d="M416.996 294.64C413.031 299.043 414.064 310.109 418.602 312.742C421.328 314.256 426.007 311.566 426.169 308.411C426.315 305.588 424.211 304.949 422.885 307.361C421.426 309.764 418.125 309.045 418.27 306.222C418.355 304.561 419.729 303.819 422.39 303.995C426.649 304.277 427.584 301.673 425.488 295.702C423.954 291.768 419.979 291.172 416.996 294.64ZM422.689 298.183C422.621 299.512 421.63 300.612 420.565 300.542C418.436 300.401 418.006 298.373 419.697 296.652C421.263 294.756 422.826 295.526 422.689 298.183Z" fill="black"/>
<path d="M430.04 300.669C430.617 310.205 432.061 313.3 435.821 312.883C439.448 312.456 442.186 305.973 441.746 298.945C441.083 291.07 439.018 292.266 438.582 300.735C438.343 305.385 437.524 308.33 436.301 308.749C433.704 309.91 432.849 308.354 433.131 302.874C433.422 297.228 432.437 292.997 430.707 292.882C430.042 292.838 429.746 295.984 430.04 300.669Z" fill="black"/>
<path d="M404.143 295.289C402.277 297.831 403.063 300.716 406.618 304.284C409.659 307.485 409.372 310.465 406.105 309.082C404.4 308.47 403.443 308.906 403.366 310.401C403.178 314.054 409.609 313.647 411.402 309.933C412.745 307.189 412.406 306 409.782 302.494C406.153 297.755 405.964 296.243 408.759 296.428C409.823 296.498 410.798 295.73 410.84 294.899C410.968 292.408 406.152 292.589 404.143 295.289Z" fill="black"/>
<path d="M381.726 294.971C379.46 297.487 378.887 308.613 381.03 311.088C381.91 312.146 384.68 312.829 387.084 312.822L391.359 312.771L391.43 303.612C391.483 294.784 391.367 294.443 387.534 293.689C385.288 293.207 382.717 293.87 381.726 294.971ZM388.63 300.927C389.404 306.643 387.877 310.375 385.117 309.525C382.614 308.86 381.582 302.96 383.135 298.73C384.529 294.99 387.929 296.382 388.63 300.927Z" fill="black"/>
<path d="M217.486 289.595C217.221 294.743 216.788 295.381 213.86 295.187C209.735 294.914 207.207 299.912 208.029 307.298C208.636 313.67 211.195 315.839 216.879 314.382C220.39 313.615 220.549 313.126 220.118 305.932C219.932 301.754 219.866 295.251 220.071 291.266C220.276 287.28 219.915 283.924 219.116 283.871C218.451 283.827 217.649 286.44 217.486 289.595ZM216.018 305.161C215.685 311.637 213.045 313.628 211.297 308.68C209.656 304.239 211.444 298.026 214.205 298.875C215.651 299.304 216.214 301.341 216.018 305.161Z" fill="black"/>
<path d="M353.736 293.951C351.581 294.308 350.731 295.252 351.169 297.113C351.5 298.468 351.695 302.48 351.507 306.134C351.327 309.621 351.839 312.654 352.504 312.698C353.303 312.751 353.98 309.963 354.168 306.31C354.356 302.657 355.343 299.056 356.6 297.973C358.841 295.955 359.527 293.001 357.913 293.228C357.239 293.35 355.483 293.733 353.736 293.951Z" fill="black"/>
<path d="M361.053 302.267C360.6 311.068 361.851 315.317 363.902 311.787C365.228 309.375 364.176 293.476 362.712 293.379C362.047 293.335 361.309 297.285 361.053 302.267Z" fill="black"/>
<path d="M366.752 295.313C366.709 296.143 367.465 297.026 368.53 297.097C371.724 297.308 372.111 300.166 369.575 305.331C368.365 308.083 367.28 311.011 367.229 312.007C367.135 313.834 372.299 314.675 375.712 313.235C378.708 312.1 378.578 309.426 375.651 309.232C371.658 308.968 371.477 307.289 374.622 300.666L377.484 294.357L372.161 294.004C369.233 293.811 366.803 294.316 366.752 295.313Z" fill="black"/>
<path d="M186.632 284.553C186.074 285.016 185.912 288.171 186.157 291.186C186.682 296.553 186.532 296.876 183.389 295.669C180.903 294.671 179.68 295.09 178.487 297.51C176.102 302.351 176.185 308.522 178.641 312.684C180.359 315.63 181.54 316.041 184.785 315.256L188.846 314.192L188.997 300.872C189.273 287.727 188.482 282.342 186.632 284.553ZM185.938 305.835C185.698 310.485 185.106 311.612 182.977 311.471C181.38 311.365 180.126 309.783 179.722 307.256C179.055 302.047 180.248 299.626 183.708 299.855C185.704 299.988 186.177 301.185 185.938 305.835Z" fill="black"/>
<path d="M337.337 296.031C336.204 297.289 335.368 300.566 335.231 303.223C334.796 311.692 340.172 316.214 345.842 312.424C348.34 310.59 349.002 300.303 346.786 296.657C344.695 293.186 339.646 292.685 337.337 296.031ZM344.946 303.866C344.656 309.513 342.557 311.373 340.032 308.54C337.765 305.89 337.862 301.398 339.987 299.039C342.536 296.209 345.203 298.885 344.946 303.866Z" fill="black"/>
<path d="M164.073 284.392C163.356 285.344 163.195 293.665 163.916 308.209C164.49 320.411 166.669 314.39 166.571 300.72C166.422 288.047 165.631 282.662 164.073 284.392Z" fill="black"/>
<path d="M314.096 296.158C310.372 306.243 314.144 315.99 321.042 314.281C324.837 313.199 324.995 312.71 324.998 304.878C325.095 300.386 324.776 296.199 324.544 295.517C323.342 292.938 315.031 293.554 314.096 296.158ZM321.12 299.789C322.954 303.077 321.23 310.627 318.568 310.451C316.439 310.31 314.935 303.212 316.329 299.472C317.423 296.379 319.153 296.493 321.12 299.789Z" fill="black"/>
<path d="M170.865 287.341C170.822 288.171 171.445 289.046 172.11 289.09C172.909 289.143 173.484 288.348 173.526 287.517C173.578 286.521 173.08 285.821 172.281 285.769C171.616 285.725 170.916 286.345 170.865 287.341Z" fill="black"/>
<path d="M299.731 295.041C299.306 295.512 300.149 299.9 301.773 304.674C303.264 309.438 305.098 312.725 305.673 311.93C307.097 310.192 310.413 300.247 310.567 297.258C310.772 293.272 308.167 294.599 307.013 298.855C306.018 302.622 303.511 304.622 303.674 301.467C303.793 299.142 300.714 294.106 299.731 295.041Z" fill="black"/>
<path d="M278.182 298.613C276.195 303.48 277.301 310.551 280.624 313.437C283.424 316.122 290.94 312.787 288.822 309.815C287.826 308.416 286.895 308.354 285.354 309.752C283.105 311.935 280.112 310.404 281.065 307.468C281.24 306.647 283.03 305.599 284.777 305.381C289.478 304.859 290.787 302.78 289.262 298.68C287.264 293.382 280.46 293.265 278.182 298.613ZM285.725 299.945C286.081 300.802 285.24 301.579 283.643 301.474C282.046 301.368 281.29 300.485 281.732 299.681C282.183 298.711 283.149 298.108 283.814 298.152C284.479 298.196 285.377 298.922 285.725 299.945Z" fill="black"/>
<path d="M112.134 289.451C108.383 294.868 107.857 302.498 110.967 309.536C112.99 314.335 114.145 315.245 118.271 315.518C121.066 315.703 124.766 316.448 126.595 317.235C129.347 318.251 129.622 318.102 128.394 316.022C127.415 314.29 127.212 310.445 128.018 305.166C129.53 293.935 126.197 286.05 119.676 285.618C116.349 285.398 114.293 286.428 112.134 289.451ZM123.674 293.548C125.143 296.144 126.153 299.877 126.042 302.036C125.88 305.191 125.172 305.977 122.377 305.792C119.449 305.598 119.166 305.913 120.386 308.16C121.614 310.241 121.447 310.896 119.541 311.603C113.265 314.187 109.405 295.769 115.26 290.991C119.024 287.908 120.861 288.529 123.674 293.548Z" fill="black"/>
<path d="M247.805 297.268C244.218 304.695 246.766 314.861 252.489 315.24C254.618 315.381 255.623 316.614 255.761 319.123C255.916 321.299 256.629 323.013 257.428 323.066C258.492 323.136 258.915 299.336 257.863 296.434C257.622 295.918 255.66 295.122 253.406 294.806C250.629 294.289 248.989 295.013 247.805 297.268ZM255.096 306.082C254.257 312.025 250.097 312.416 249.181 306.857C248.407 301.14 251.308 296.666 253.949 299.841C254.962 300.908 255.482 303.775 255.096 306.082Z" fill="black"/>
<path d="M262.282 301.392C261.743 311.854 267.39 318.893 272.064 313.704C274.047 311.502 275.116 295.91 273.253 295.787C272.587 295.743 271.768 298.688 271.58 302.341C271.35 306.825 270.547 309.438 269.182 310.014C266.319 311.157 265.714 309.951 265.317 302.093C264.83 293.396 262.717 292.923 262.282 301.392Z" fill="black"/>
<path d="M225.095 297.43C220.616 306.632 225.758 318.303 232.634 314.426C236.205 312.496 235.535 309.952 231.525 310.02C226.434 310.349 225.806 306.975 230.648 306.296C235.224 305.599 236.627 301.693 233.771 297.505C231.032 293.658 227.022 293.725 225.095 297.43ZM231.321 301.009C231.527 302.189 230.819 302.975 229.622 302.896C228.424 302.816 227.552 301.592 227.629 300.098C227.774 297.274 230.676 297.967 231.321 301.009Z" fill="black"/>
<path d="M194.027 296.54C192.328 298.427 192.288 309.588 193.989 312.867C195.333 315.288 196.638 315.875 200.016 315.099C204.335 314.218 204.343 314.052 204.371 305.722C204.416 297.061 204.416 297.061 199.784 296.254C197.14 295.746 194.594 295.911 194.027 296.54ZM201.787 304.052C202.08 308.737 199.471 312.73 196.877 311.225C195.057 310.271 194.677 302.081 196.518 300.037C198.492 298.002 201.575 300.372 201.787 304.052Z" fill="black"/>
<path d="M149.789 297.276C146.931 300.919 146.388 308.882 148.694 313.367C150.022 316.121 151.078 316.357 154.872 315.275C159.341 314.072 159.358 313.739 159.369 305.742C159.475 301.084 159.397 297.413 159.272 297.238C159.148 297.063 157.443 296.45 155.606 295.828C153.253 294.84 151.489 295.389 149.789 297.276ZM156.282 306.038C156.425 311.046 156.133 311.526 153.364 310.843C150.329 310.142 149.07 306.06 150.632 301.664C152.335 297.112 156.182 300.199 156.282 306.038Z" fill="black"/>
<path d="M171.451 296.711C170.258 299.131 170.962 314.008 172.293 314.096C173.757 314.193 174.582 300.751 173.138 297.656C172.533 296.449 171.751 296.064 171.451 296.711Z" fill="black"/>
<path d="M132.645 303.473C132.055 314.931 136.856 320.248 141.847 314.08C144.272 311.074 145.262 304.808 144.046 299.895C142.714 294.642 140.98 297.193 140.896 304.019C140.979 310.19 140.529 311.16 138.266 311.01C136.137 310.869 135.54 309.496 135.504 304.995C135.309 295.818 133.098 294.671 132.645 303.473Z" fill="black"/>
<path d="M361.285 284.786C360.392 286.56 362.286 288.685 363.694 287.279C364.968 285.863 364.822 283.521 363.491 283.433C362.692 283.38 361.86 283.991 361.285 284.786Z" fill="black"/>
<defs>
<linearGradient id="paint0_linear_1_62" x1="322.727" y1="52.2409" x2="320.304" y2="125.534" gradientUnits="userSpaceOnUse">
<stop stop-color="#EFEC8F"/>
<stop offset="1" stop-color="#F8E775"/>
</linearGradient>
<linearGradient id="paint1_linear_1_62" x1="448.974" y1="135.753" x2="180.721" y2="126.884" gradientUnits="userSpaceOnUse">
<stop stop-color="#959595"/>
<stop offset="1" stop-color="#DADADA"/>
</linearGradient>
<linearGradient id="paint2_linear_1_62" x1="429.471" y1="153.326" x2="200.116" y2="145.744" gradientUnits="userSpaceOnUse">
<stop stop-color="#D9D9D9"/>
<stop offset="0.195" stop-color="#D9D9D9"/>
<stop offset="0.99" stop-color="#737373"/>
</linearGradient>
<linearGradient id="paint3_linear_1_62" x1="430.77" y1="272.409" x2="436.731" y2="176.076" gradientUnits="userSpaceOnUse">
<stop stop-opacity="0.29"/>
<stop offset="1" stop-color="#666666"/>
</linearGradient>
<linearGradient id="paint4_linear_1_62" x1="531.818" y1="272.624" x2="536.749" y2="192.935" gradientUnits="userSpaceOnUse">
<stop stop-opacity="0.29"/>
<stop offset="1" stop-color="#666666"/>
</linearGradient>
<linearGradient id="paint5_linear_1_62" x1="482.233" y1="273.143" x2="487.3" y2="191.236" gradientUnits="userSpaceOnUse">
<stop stop-opacity="0.29"/>
<stop offset="1" stop-color="#666666"/>
</linearGradient>
<linearGradient id="paint6_linear_1_62" x1="375.22" y1="271.644" x2="380.1" y2="192.772" gradientUnits="userSpaceOnUse">
<stop stop-opacity="0.29"/>
<stop offset="1" stop-color="#666666"/>
</linearGradient>
<linearGradient id="paint7_linear_1_62" x1="319.866" y1="275.433" x2="325.005" y2="192.389" gradientUnits="userSpaceOnUse">
<stop stop-opacity="0.29"/>
<stop offset="1" stop-color="#666666"/>
</linearGradient>
<linearGradient id="paint8_linear_1_62" x1="90.2296" y1="271.945" x2="96.3165" y2="173.566" gradientUnits="userSpaceOnUse">
<stop stop-opacity="0.38"/>
<stop offset="1" stop-color="#666666"/>
</linearGradient>
<linearGradient id="paint9_linear_1_62" x1="241.515" y1="274.194" x2="246.666" y2="190.94" gradientUnits="userSpaceOnUse">
<stop stop-opacity="0.38"/>
<stop offset="1" stop-color="#666666"/>
</linearGradient>
<linearGradient id="paint10_linear_1_62" x1="189.013" y1="272.411" x2="193.984" y2="192.063" gradientUnits="userSpaceOnUse">
<stop stop-opacity="0.38"/>
<stop offset="1" stop-color="#666666"/>
</linearGradient>
<linearGradient id="paint11_linear_1_62" x1="131.842" y1="273.167" x2="136.857" y2="192.123" gradientUnits="userSpaceOnUse">
<stop stop-opacity="0.38"/>
<stop offset="1" stop-color="#666666"/>
</linearGradient>
</defs>
</svg>
