<svg width="744" height="400" viewBox="0 0 744 400" fill="none" xmlns="http://www.w3.org/2000/svg">
<rect width="744" height="400" fill="#F5F5F5"/>
<mask id="path-1-inside-1_0_1" fill="white">
<path d="M349.575 72.1255C346.014 91.799 344.224 97.5799 341.991 98.2248C341.193 98.4856 332.512 94.2424 322.764 88.9713C313.016 83.7002 304.797 79.7554 304.461 80.3145C303.941 81.5797 319.654 109.227 322.245 111.724C323.47 112.756 326.449 113.272 329.459 112.935C333.578 112.489 334.555 111.664 334.654 108.963C334.811 104.699 335.599 104.722 343.949 109.383C355.237 115.696 355.888 115.146 357.696 100.258C358.587 93.1699 359.783 86.3752 360.45 85.399C362.115 83.0295 368.054 88.8986 373.999 98.8945C376.381 102.808 379.408 106.313 380.664 106.493C381.914 106.815 386.805 102.549 391.731 97.2887C404.39 83.4361 405.635 83.9001 406.776 104.425C407.405 117.393 407.4 117.536 418.086 114.439C426.854 111.997 428.273 112.039 426.745 114.982C426.062 116.384 424.503 120.18 423.122 123.412L420.854 129.321L425.946 132.461C428.726 134.109 431.989 135.487 432.935 135.515C434.039 135.548 436.686 132.212 438.891 128.008C441.097 123.805 445.996 114.986 449.714 108.267C453.589 101.552 456.651 95.5244 456.677 94.8137C456.734 93.2501 454.69 93.0468 452.584 94.5493C451.769 95.2366 444.42 97.7211 436.129 100.035C421.782 104.019 420.988 104.138 419.033 101.518C417.677 99.7698 417.25 94.2074 417.441 84.679C417.733 76.7189 417.436 67.6029 417.083 64.3194L416.204 58.1743L407.999 66.7523C394.054 81.2781 382.488 91.1788 380.465 90.407C379.377 89.9477 373.206 81.7949 366.767 72.3534C360.333 62.7698 354.625 54.9154 353.994 54.8966C353.364 54.8778 351.343 62.6441 349.575 72.1255Z"/>
</mask>
<path d="M349.575 72.1255C346.014 91.799 344.224 97.5799 341.991 98.2248C341.193 98.4856 332.512 94.2424 322.764 88.9713C313.016 83.7002 304.797 79.7554 304.461 80.3145C303.941 81.5797 319.654 109.227 322.245 111.724C323.47 112.756 326.449 113.272 329.459 112.935C333.578 112.489 334.555 111.664 334.654 108.963C334.811 104.699 335.599 104.722 343.949 109.383C355.237 115.696 355.888 115.146 357.696 100.258C358.587 93.1699 359.783 86.3752 360.45 85.399C362.115 83.0295 368.054 88.8986 373.999 98.8945C376.381 102.808 379.408 106.313 380.664 106.493C381.914 106.815 386.805 102.549 391.731 97.2887C404.39 83.4361 405.635 83.9001 406.776 104.425C407.405 117.393 407.4 117.536 418.086 114.439C426.854 111.997 428.273 112.039 426.745 114.982C426.062 116.384 424.503 120.18 423.122 123.412L420.854 129.321L425.946 132.461C428.726 134.109 431.989 135.487 432.935 135.515C434.039 135.548 436.686 132.212 438.891 128.008C441.097 123.805 445.996 114.986 449.714 108.267C453.589 101.552 456.651 95.5244 456.677 94.8137C456.734 93.2501 454.69 93.0468 452.584 94.5493C451.769 95.2366 444.42 97.7211 436.129 100.035C421.782 104.019 420.988 104.138 419.033 101.518C417.677 99.7698 417.25 94.2074 417.441 84.679C417.733 76.7189 417.436 67.6029 417.083 64.3194L416.204 58.1743L407.999 66.7523C394.054 81.2781 382.488 91.1788 380.465 90.407C379.377 89.9477 373.206 81.7949 366.767 72.3534C360.333 62.7698 354.625 54.9154 353.994 54.8966C353.364 54.8778 351.343 62.6441 349.575 72.1255Z" fill="url(#paint0_linear_0_1)" stroke="black" stroke-width="2" mask="url(#path-1-inside-1_0_1)"/>
<mask id="path-2-inside-2_0_1" fill="white">
<path d="M347.022 38.4666C342.505 41.1779 342.426 43.3101 347.162 47.5779C350.215 50.3727 351.308 50.6898 353.415 49.1873C356.33 47.1398 356.885 40.6105 354.294 38.1142C352.008 35.9115 351.377 35.8927 347.022 38.4666Z"/>
</mask>
<path d="M347.022 38.4666C342.505 41.1779 342.426 43.3101 347.162 47.5779C350.215 50.3727 351.308 50.6898 353.415 49.1873C356.33 47.1398 356.885 40.6105 354.294 38.1142C352.008 35.9115 351.377 35.8927 347.022 38.4666Z" fill="#DC2A15" stroke="black" stroke-width="2" mask="url(#path-2-inside-2_0_1)"/>
<mask id="path-3-inside-3_0_1" fill="white">
<path d="M416.425 43.524C413.872 44.3017 413.459 51.2621 415.898 53.6116C419.86 57.4295 428.203 53.6939 428.406 48.1502C428.547 44.3123 421.7 41.6891 416.425 43.524Z"/>
</mask>
<path d="M416.425 43.524C413.872 44.3017 413.459 51.2621 415.898 53.6116C419.86 57.4295 428.203 53.6939 428.406 48.1502C428.547 44.3123 421.7 41.6891 416.425 43.524Z" fill="#DC2A15" stroke="black" stroke-width="2" mask="url(#path-3-inside-3_0_1)"/>
<mask id="path-4-inside-4_0_1" fill="white">
<path d="M293.039 64.7479C289.247 69.1884 289.558 73.609 293.899 75.7306C300.089 79.0458 303.457 77.5809 303.523 71.464C303.536 62.4995 297.829 58.9141 293.039 64.7479Z"/>
</mask>
<path d="M293.039 64.7479C289.247 69.1884 289.558 73.609 293.899 75.7306C300.089 79.0458 303.457 77.5809 303.523 71.464C303.536 62.4995 297.829 58.9141 293.039 64.7479Z" fill="#DC2A15" stroke="black" stroke-width="2" mask="url(#path-4-inside-4_0_1)"/>
<mask id="path-5-inside-5_0_1" fill="white">
<path d="M460.303 81.9725C452.855 87.1578 459.888 97.6131 467.931 93.4416C474.045 90.2087 473.46 84.6416 466.492 81.0186C464.637 79.9672 462.893 80.1998 460.303 81.9725Z"/>
</mask>
<path d="M460.303 81.9725C452.855 87.1578 459.888 97.6131 467.931 93.4416C474.045 90.2087 473.46 84.6416 466.492 81.0186C464.637 79.9672 462.893 80.1998 460.303 81.9725Z" fill="#DC2A15" stroke="black" stroke-width="2" mask="url(#path-5-inside-5_0_1)"/>
<path d="M259.638 114.98C246.157 116.855 232.198 123.127 222.586 131.378C217.696 135.644 213.588 140.075 213.541 141.354C213.468 143.344 213.941 143.358 217.182 141.036C223.512 136.244 240.16 129.768 253.037 127.163C262.415 125.308 270.638 124.842 287.509 125.203C319.354 126.01 333.925 128.863 394.82 146.474C444.78 161.055 462.782 165.007 485.764 166.546C506.066 168.005 518.439 166.24 526.219 160.637L530.595 157.495L510.266 156.747C488.199 156.089 466.546 152.739 446.253 146.727C389.125 129.655 358.17 121.76 332.597 117.724C314.249 114.616 272.489 113.086 259.638 114.98Z" fill="url(#paint1_linear_0_1)"/>
<path d="M261.867 135.965C253.918 137.578 243.958 142.403 240.344 146.28C234.924 152.095 235.666 157.667 242.535 163.991C251.848 172.522 264.18 176.162 288.896 177.753C307.47 179.018 310.79 178.833 320.51 176.276C331.663 173.336 340.835 168.487 332.419 169.943C311.614 173.592 293.644 173.056 270.62 168.385C253.075 164.874 243.137 156.182 247.995 148.5C254.69 138.027 287.509 142.421 362.618 164.013C406.504 176.421 421.694 179.578 448.149 181.078C466.413 182.192 475.881 182.189 488.406 180.57C515.033 177.38 514.281 176.361 483.15 173.299C476.23 172.666 461.801 170.243 450.993 168.071C430.942 164.058 423.433 162.269 377.299 150.932C330.854 139.444 319.095 137.386 291.842 136.147C277.981 135.449 264.573 135.334 261.867 135.965Z" fill="url(#paint2_linear_0_1)"/>
<mask id="path-8-inside-6_0_1" fill="white">
<path d="M489.652 187.577C487.714 188.182 485.699 189.922 484.962 191.448C484.383 192.983 483.688 212.324 483.585 234.547C483.341 279.562 483.716 281.007 494.226 286.724C502.454 291.173 516.778 291.972 525.708 288.48C529.278 287.112 534.441 283.268 537.183 280.143L542.167 274.294L541.796 249.764C541.431 220.533 539.636 214.448 529.697 209.619C526.026 207.846 519.808 206.359 514.613 206.07L505.641 205.569L505.222 197.851C504.706 191.552 503.869 189.938 500.818 188.343C496.38 186.243 494.491 186.138 489.652 187.577ZM520.205 225.903C521.8 227.987 522.365 233.576 522.129 248.525C521.926 267.608 521.7 268.592 518.377 270.972C514.552 273.751 507.744 273.941 505.086 271.228C503.019 269.117 502.143 254.249 503.214 238.635C503.651 229.967 504.514 226.595 506.52 224.997C510.03 222.201 517.261 222.747 520.205 225.903Z"/>
</mask>
<path d="M489.652 187.577C487.714 188.182 485.699 189.922 484.962 191.448C484.383 192.983 483.688 212.324 483.585 234.547C483.341 279.562 483.716 281.007 494.226 286.724C502.454 291.173 516.778 291.972 525.708 288.48C529.278 287.112 534.441 283.268 537.183 280.143L542.167 274.294L541.796 249.764C541.431 220.533 539.636 214.448 529.697 209.619C526.026 207.846 519.808 206.359 514.613 206.07L505.641 205.569L505.222 197.851C504.706 191.552 503.869 189.938 500.818 188.343C496.38 186.243 494.491 186.138 489.652 187.577ZM520.205 225.903C521.8 227.987 522.365 233.576 522.129 248.525C521.926 267.608 521.7 268.592 518.377 270.972C514.552 273.751 507.744 273.941 505.086 271.228C503.019 269.117 502.143 254.249 503.214 238.635C503.651 229.967 504.514 226.595 506.52 224.997C510.03 222.201 517.261 222.747 520.205 225.903Z" fill="url(#paint3_linear_0_1)" stroke="url(#paint4_linear_0_1)" stroke-width="2" mask="url(#path-8-inside-6_0_1)"/>
<mask id="path-9-inside-7_0_1" fill="white">
<path d="M619.75 207.518C616.013 209.02 611.018 212.731 608.275 215.855L603.449 221.713L602.944 245.197C602.377 264.972 602.843 269.7 605.178 274.818C612.488 290.33 635.011 296.004 649.455 285.838C660.901 277.927 664.375 266.436 656.974 261.463C653.647 259.283 653.018 259.248 649.409 261.184C647.127 262.196 644.256 264.886 643.008 266.954C641.76 269.022 638.742 271.561 636.293 272.706C632.231 274.332 631.287 274.279 627.635 272.223C624.142 270.176 623.304 268.562 623.311 263.86L623.248 257.872L630.872 257.299C642.302 256.512 650.141 252.817 656.009 245.593C660.324 240.276 661.267 238.049 660.997 232.761C660.804 224.059 656.933 216.005 650.938 211.254C643.733 205.722 628.847 203.894 619.75 207.518ZM638.503 224.382C640.628 225.64 641.289 227.529 641.026 231.362C640.549 238.318 638.218 240.04 630.033 239.583C624.524 239.276 623.303 238.638 622.701 235.897C621.497 230.415 622.145 227.886 625.655 225.09C629.332 222.16 633.936 221.847 638.503 224.382Z"/>
</mask>
<path d="M619.75 207.518C616.013 209.02 611.018 212.731 608.275 215.855L603.449 221.713L602.944 245.197C602.377 264.972 602.843 269.7 605.178 274.818C612.488 290.33 635.011 296.004 649.455 285.838C660.901 277.927 664.375 266.436 656.974 261.463C653.647 259.283 653.018 259.248 649.409 261.184C647.127 262.196 644.256 264.886 643.008 266.954C641.76 269.022 638.742 271.561 636.293 272.706C632.231 274.332 631.287 274.279 627.635 272.223C624.142 270.176 623.304 268.562 623.311 263.86L623.248 257.872L630.872 257.299C642.302 256.512 650.141 252.817 656.009 245.593C660.324 240.276 661.267 238.049 660.997 232.761C660.804 224.059 656.933 216.005 650.938 211.254C643.733 205.722 628.847 203.894 619.75 207.518ZM638.503 224.382C640.628 225.64 641.289 227.529 641.026 231.362C640.549 238.318 638.218 240.04 630.033 239.583C624.524 239.276 623.303 238.638 622.701 235.897C621.497 230.415 622.145 227.886 625.655 225.09C629.332 222.16 633.936 221.847 638.503 224.382Z" fill="url(#paint5_linear_0_1)" stroke="url(#paint6_linear_0_1)" stroke-width="2" mask="url(#path-9-inside-7_0_1)"/>
<mask id="path-10-inside-8_0_1" fill="white">
<path d="M574.682 205.716C565.348 208.188 557.373 213.87 553.925 220.375C551.174 225.921 550.95 229.186 550.791 254.541C550.831 270.075 551.313 283.782 552.16 285.254C555.352 291.702 565.544 292.84 569.239 287.347C570.802 285.297 571.229 276.771 571.401 255.834L571.637 227.063L575.954 224.026C578.933 222.055 582.307 221.246 587.03 221.51C596.159 222.019 600.515 218.415 598.238 212.445C595.42 205.163 586.426 202.667 574.682 205.716Z"/>
</mask>
<path d="M574.682 205.716C565.348 208.188 557.373 213.87 553.925 220.375C551.174 225.921 550.95 229.186 550.791 254.541C550.831 270.075 551.313 283.782 552.16 285.254C555.352 291.702 565.544 292.84 569.239 287.347C570.802 285.297 571.229 276.771 571.401 255.834L571.637 227.063L575.954 224.026C578.933 222.055 582.307 221.246 587.03 221.51C596.159 222.019 600.515 218.415 598.238 212.445C595.42 205.163 586.426 202.667 574.682 205.716Z" fill="url(#paint7_linear_0_1)" stroke="url(#paint8_linear_0_1)" stroke-width="2" mask="url(#path-10-inside-8_0_1)"/>
<mask id="path-11-inside-9_0_1" fill="white">
<path d="M438.273 206.37C434.751 207.028 429.352 209.719 425.341 212.915L418.655 218.242L417.994 243.997C417.002 274.578 417.802 279.04 425.154 284.722C430.105 288.561 431.808 289.083 443.456 289.733C454.632 290.357 457.022 290.063 462.923 286.972C473.573 281.439 475.813 276.434 475.789 256.056C475.924 224.145 475.301 219.408 469.513 213.955C461.49 206.525 451.385 204.109 438.273 206.37ZM453.416 225.169C456.409 227.616 456.597 229.479 456.108 248.118C455.648 266.332 455.335 268.594 452.641 271.009C449.112 274.089 441.842 274.111 439.351 271.265C437.312 268.729 436.046 243.437 437.386 233.109C438.316 226.464 439.033 225.222 442.446 223.844C447.806 221.721 449.528 221.96 453.416 225.169Z"/>
</mask>
<path d="M438.273 206.37C434.751 207.028 429.352 209.719 425.341 212.915L418.655 218.242L417.994 243.997C417.002 274.578 417.802 279.04 425.154 284.722C430.105 288.561 431.808 289.083 443.456 289.733C454.632 290.357 457.022 290.063 462.923 286.972C473.573 281.439 475.813 276.434 475.789 256.056C475.924 224.145 475.301 219.408 469.513 213.955C461.49 206.525 451.385 204.109 438.273 206.37ZM453.416 225.169C456.409 227.616 456.597 229.479 456.108 248.118C455.648 266.332 455.335 268.594 452.641 271.009C449.112 274.089 441.842 274.111 439.351 271.265C437.312 268.729 436.046 243.437 437.386 233.109C438.316 226.464 439.033 225.222 442.446 223.844C447.806 221.721 449.528 221.96 453.416 225.169Z" fill="url(#paint9_linear_0_1)" stroke="url(#paint10_linear_0_1)" stroke-width="2" mask="url(#path-11-inside-9_0_1)"/>
<mask id="path-12-inside-10_0_1" fill="white">
<path d="M375.124 205.554C365.858 207.032 358.63 211.046 355.249 216.557C352.4 221.243 352.205 224.082 352.096 251.007C351.933 285.624 352.694 290.654 357.958 292.23C363.537 293.824 369.478 292.445 370.804 289.242C371.374 287.849 371.689 274.044 371.324 258.635C370.949 243.367 371.264 229.562 371.844 228.027C373.543 223.99 380.23 220.943 384.088 222.298C390.572 224.512 391.392 228.691 391.195 256.893C391.194 284.537 392.192 290.72 397.171 291.853C402.297 293.136 407.795 291.306 408.806 288.085C410.947 282.219 409.617 223.295 407.282 218.178C403.311 209.264 388.393 203.302 375.124 205.554Z"/>
</mask>
<path d="M375.124 205.554C365.858 207.032 358.63 211.046 355.249 216.557C352.4 221.243 352.205 224.082 352.096 251.007C351.933 285.624 352.694 290.654 357.958 292.23C363.537 293.824 369.478 292.445 370.804 289.242C371.374 287.849 371.689 274.044 371.324 258.635C370.949 243.367 371.264 229.562 371.844 228.027C373.543 223.99 380.23 220.943 384.088 222.298C390.572 224.512 391.392 228.691 391.195 256.893C391.194 284.537 392.192 290.72 397.171 291.853C402.297 293.136 407.795 291.306 408.806 288.085C410.947 282.219 409.617 223.295 407.282 218.178C403.311 209.264 388.393 203.302 375.124 205.554Z" fill="url(#paint11_linear_0_1)" stroke="url(#paint12_linear_0_1)" stroke-width="2" mask="url(#path-12-inside-10_0_1)"/>
<path d="M103.187 187.103C101.515 188.435 100.238 190.929 100.131 192.49C99.9262 195.471 104.179 200.268 107.17 200.435C110.318 200.611 109.199 203.113 105.667 203.913C103.907 204.243 102.049 205.991 101.46 207.669C100.87 209.346 100.578 227.426 100.926 247.68C101.577 277.355 102.143 285.224 104.043 287.467C107.282 290.925 112.477 291.215 117.266 288.205C120.904 285.843 120.914 285.701 120.624 264.596C119.709 208.829 119.253 203.959 114.374 203.687C111.068 203.502 111.519 201.533 115.502 198.762C117.331 197.44 118.903 195.247 119.01 193.686C119.254 190.137 114.066 185.145 109.658 184.899C107.612 184.785 104.701 185.763 103.187 187.103Z" fill="url(#paint13_linear_0_1)"/>
<path d="M297.062 205.615C296.206 206.565 294.222 210.159 292.876 213.647C291.531 217.134 289.88 220.462 289.202 221.136C288.524 221.811 286.219 218.547 284.003 214.006C280.022 205.235 276.086 202.735 270.076 205.107C262.267 208.376 262.407 210.949 271.47 228.554C276.051 237.787 279.716 246.541 279.609 248.102C279.502 249.664 276.084 258.023 272.018 266.631C267.774 275.513 265.005 283.624 265.37 285.211C265.745 286.657 268.59 288.953 271.503 290.256C276.246 292.515 277.2 292.426 279.855 290.579C281.517 289.39 283.826 285.671 285.004 282.317C287.94 274.074 290.035 273.478 292.578 280.175C296.589 290.801 301.933 293.521 309.81 289.258C314.904 286.408 314.252 282.097 306.33 263.985C302.911 256.242 300.092 248.96 300.17 247.825C300.248 246.689 303.331 238.596 306.926 229.962C310.53 221.186 313.604 213.236 313.672 212.242C314.052 206.706 301.279 201.718 297.062 205.615Z" fill="url(#paint14_linear_0_1)"/>
<path d="M219.983 205.162C211.346 206.675 204.758 210.582 201.024 216.644C197.486 222.146 197.427 222.998 197.878 248.672C198.347 271.782 198.713 275.65 201.441 279.649C209.496 291.214 228.731 294.139 243.984 286.013C251.035 282.274 255.29 275.529 255.176 267.971C254.908 235.04 254.022 220.313 252.357 216.943C248.337 208.739 232.613 203.017 219.983 205.162ZM231.889 222.783C235.215 224.964 236.332 231.723 236.216 249.529C236.06 265.622 235.757 267.742 233.063 270.157C229.022 273.779 220.05 273.278 218.109 269.322C215.873 265.065 215.779 229.579 217.892 226.42C221.047 221.893 227.804 220.133 231.889 222.783Z" fill="url(#paint15_linear_0_1)"/>
<path d="M143.535 207.024C138.185 209.005 135.668 211.145 132.975 215.839C129.585 221.492 129.468 223.196 129.562 244.86C129.774 280.923 130.18 284.223 133.586 287.548C137.445 291.183 140.908 291.376 145.697 288.366L149.335 286.004L148.794 257.048C148.416 237.22 148.94 227.275 150.011 225.482C155.092 218.213 166.958 220.3 167.967 228.621C168.274 231.061 168.618 244.474 168.775 258.305C169.084 279.127 169.688 284.147 171.884 286.692C176.57 292.084 186.672 289.94 187.12 283.41C187.578 276.739 186.409 222.383 185.797 219.784C184.672 215.446 179.356 210.02 173.836 207.575C166.17 204.154 151.816 203.781 143.535 207.024Z" fill="url(#paint16_linear_0_1)"/>
<path d="M606.043 313.732C602.318 318.13 602.817 325.981 607.176 332.639C610.229 337.265 610.61 338.887 608.976 339.856C607.498 340.834 607.783 341.385 610.301 341.535C613.292 341.714 613.815 340.856 613.666 335.16C613.812 329.836 613.106 328.372 610.744 328.231C608.383 328.09 607.52 326.617 607.457 322.17C607.314 319.14 608.106 316.343 608.893 316.39C609.847 316.269 611.432 316.186 612.229 316.056C613.173 316.112 614.021 315.097 614.386 314.23C615.188 311.256 608.419 310.852 606.043 313.732Z" fill="black"/>
<path d="M619.343 315.948C617.429 319.033 616.983 321.317 617.903 324.571C620.506 334.324 627.833 336.006 631.949 327.542C636.806 317.168 625.555 306.721 619.343 315.948ZM628.464 322.18C628.232 326.254 627.531 327.456 625.013 327.306C621.707 327.108 620.386 322.586 622.222 318.075C624.237 313.218 628.798 316.334 628.464 322.18Z" fill="black"/>
<path d="M571.077 311.999C568.676 312.567 568.072 314.841 567.405 326.532C566.971 334.149 567.364 341.104 568.12 341.682C569.024 342.447 569.765 340.536 569.947 337.348C570.2 332.92 570.89 331.895 573.063 332.557C580.381 334.416 585.115 320.658 579.477 314.278C576.658 311.088 575.881 310.864 571.077 311.999ZM577.89 322.715C577.657 326.789 576.957 327.991 574.438 327.841C572.077 327.7 571.213 326.226 571.151 321.779C570.982 316.437 571.327 315.924 574.603 316.653C577.416 317.177 578.132 318.464 577.89 322.715Z" fill="black"/>
<path d="M587.398 313.862C584.55 316.714 584.198 328.423 586.88 331.25C588.226 332.574 590.882 333.088 593.913 332.558C598.538 331.768 598.726 331.246 599.252 322.035L599.797 312.47L594.603 312.16C591.769 311.991 588.57 312.688 587.398 313.862ZM595.306 321.977C595.074 326.051 594.373 327.254 591.855 327.103C588.549 326.906 587.228 322.384 589.064 317.872C591.079 313.016 595.64 316.132 595.306 321.977Z" fill="black"/>
<path d="M389.018 308.238C389.278 311.986 389.335 319.276 389.053 324.236C388.658 331.144 389.147 333.662 390.721 333.756C392.452 333.859 392.919 331.221 392.825 321.795C392.759 306.328 392.225 301.853 390.178 301.731C388.919 301.656 388.63 303.949 389.018 308.238Z" fill="black"/>
<path d="M539.098 313.289C535.737 316.821 534.994 327.085 538.097 330.825C540.739 334.36 542.303 334.631 546.695 332.405C551.421 329.843 550.618 327.307 545.088 327.332C542.077 327.508 539.757 326.659 539.523 325.223C539.131 323.777 540.746 323.163 544.681 323.398C550.348 323.736 550.516 323.569 549.676 318.897C548.751 312.977 549.182 313.713 545.17 312.052C543.007 311.212 540.773 311.612 539.098 313.289ZM545.771 318.131C545.721 319.017 544.568 319.836 543.309 319.761C542.05 319.686 540.998 318.735 541.049 317.849C541.11 316.786 542.252 316.143 543.511 316.219C544.771 316.294 545.832 317.068 545.771 318.131Z" fill="black"/>
<path d="M555.077 312.821C552.742 314.992 553.698 320.382 556.568 322.686C560.646 325.951 560.404 330.202 556.077 328.522C553.767 327.495 552.959 327.802 553.341 329.425C553.732 330.87 555.708 332.232 557.891 332.718C564.137 333.98 565.958 326.979 560.732 321.69C556.104 316.971 555.891 315.18 560.298 315.444C562.03 315.547 563.025 314.718 562.603 313.804C561.612 311.79 556.753 311.144 555.077 312.821Z" fill="black"/>
<path d="M493.236 314.283C488.545 318.98 489.767 330.783 495.135 333.592C498.36 335.206 503.894 332.338 504.086 328.972C504.258 325.961 501.769 325.279 500.201 327.851C498.475 330.414 494.57 329.648 494.742 326.637C494.843 324.865 496.468 324.074 499.616 324.262C504.653 324.563 505.76 321.785 503.28 315.416C501.466 311.22 496.764 310.583 493.236 314.283ZM499.97 318.062C499.889 319.479 498.716 320.653 497.457 320.578C494.938 320.428 494.43 318.265 496.43 316.429C498.283 314.407 500.131 315.228 499.97 318.062Z" fill="black"/>
<path d="M508.664 320.714C509.347 330.886 511.054 334.187 515.502 333.742C519.793 333.287 523.03 326.371 522.51 318.875C521.726 310.474 519.284 311.75 518.769 320.784C518.486 325.744 517.517 328.885 516.07 329.332C512.998 330.571 511.987 328.911 512.32 323.065C512.664 317.043 511.5 312.53 509.453 312.408C508.666 312.361 508.317 315.717 508.664 320.714Z" fill="black"/>
<path d="M478.033 314.975C475.825 317.687 476.755 320.764 480.96 324.57C484.556 327.984 484.217 331.163 480.353 329.688C478.336 329.034 477.204 329.5 477.113 331.094C476.891 334.991 484.497 334.556 486.619 330.595C488.207 327.668 487.806 326.4 484.702 322.66C480.41 317.605 480.186 315.992 483.492 316.19C484.751 316.265 485.904 315.445 485.954 314.559C486.106 311.902 480.408 312.095 478.033 314.975Z" fill="black"/>
<path d="M451.517 314.636C448.836 317.319 448.159 329.187 450.694 331.827C451.735 332.956 455.011 333.684 457.854 333.676L462.912 333.623L462.995 323.852C463.058 314.436 462.921 314.073 458.386 313.269C455.731 312.754 452.689 313.462 451.517 314.636ZM459.684 320.989C460.599 327.086 458.793 331.066 455.527 330.16C452.567 329.451 451.346 323.157 453.183 318.645C454.832 314.656 458.854 316.14 459.684 320.989Z" fill="black"/>
<path d="M257.249 308.901C256.936 314.392 256.423 315.073 252.96 314.866C248.08 314.574 245.091 319.906 246.063 327.784C246.781 334.581 249.808 336.895 256.531 335.341C260.684 334.523 260.872 334.001 260.362 326.327C260.142 321.871 260.064 314.935 260.307 310.683C260.549 306.432 260.122 302.852 259.177 302.796C258.39 302.749 257.441 305.536 257.249 308.901ZM255.512 325.505C255.118 332.413 251.996 334.537 249.928 329.259C247.987 324.522 250.102 317.894 253.368 318.8C255.079 319.258 255.745 321.431 255.512 325.505Z" fill="black"/>
<path d="M418.409 313.548C415.86 313.929 414.855 314.935 415.374 316.921C415.765 318.366 415.995 322.646 415.773 326.543C415.56 330.262 416.166 333.498 416.953 333.545C417.897 333.601 418.698 330.627 418.921 326.731C419.143 322.834 420.31 318.993 421.797 317.838C424.447 315.685 425.259 312.535 423.35 312.776C422.553 312.906 420.476 313.315 418.409 313.548Z" fill="black"/>
<path d="M427.064 322.418C426.529 331.806 428.008 336.338 430.434 332.572C432.002 330 430.758 313.041 429.027 312.937C428.24 312.89 427.367 317.104 427.064 322.418Z" fill="black"/>
<path d="M433.805 315C433.755 315.886 434.649 316.828 435.908 316.903C439.686 317.129 440.144 320.177 437.145 325.686C435.713 328.622 434.43 331.745 434.369 332.807C434.258 334.756 440.367 335.654 444.403 334.117C447.947 332.907 447.794 330.054 444.331 329.847C439.608 329.565 439.395 327.775 443.115 320.71L446.5 313.981L440.203 313.605C436.74 313.398 433.866 313.937 433.805 315Z" fill="black"/>
<path d="M220.754 303.523C220.094 304.017 219.902 307.382 220.192 310.599C220.813 316.323 220.636 316.668 216.918 315.38C213.978 314.316 212.531 314.762 211.12 317.344C208.298 322.508 208.397 329.09 211.302 333.529C213.334 336.672 214.731 337.111 218.57 336.274L223.373 335.138L223.552 320.93C223.878 306.909 222.942 301.165 220.754 303.523ZM219.933 326.224C219.65 331.184 218.949 332.386 216.431 332.236C214.542 332.123 213.058 330.435 212.58 327.74C211.792 322.183 213.203 319.601 217.295 319.846C219.657 319.987 220.216 321.264 219.933 326.224Z" fill="black"/>
<path d="M399.013 315.766C397.673 317.108 396.683 320.604 396.522 323.438C396.006 332.472 402.365 337.295 409.072 333.252C412.026 331.296 412.81 320.323 410.189 316.434C407.715 312.731 401.744 312.197 399.013 315.766ZM408.013 324.124C407.669 330.147 405.187 332.131 402.2 329.109C399.518 326.283 399.634 321.491 402.147 318.975C405.162 315.956 408.316 318.81 408.013 324.124Z" fill="black"/>
<path d="M194.07 303.351C193.222 304.367 193.032 313.243 193.884 328.757C194.563 341.772 197.141 335.35 197.025 320.768C196.849 307.25 195.913 301.506 194.07 303.351Z" fill="black"/>
<path d="M371.522 315.902C367.117 326.659 371.578 337.056 379.738 335.233C384.226 334.079 384.414 333.557 384.417 325.204C384.532 320.412 384.155 315.946 383.881 315.218C382.458 312.467 372.628 313.125 371.522 315.902ZM379.83 319.775C381.999 323.282 379.96 331.336 376.812 331.148C374.293 330.998 372.514 323.426 374.163 319.437C375.457 316.137 377.503 316.259 379.83 319.775Z" fill="black"/>
<path d="M202.104 306.497C202.053 307.383 202.79 308.315 203.577 308.362C204.522 308.419 205.202 307.571 205.252 306.685C205.313 305.622 204.724 304.876 203.779 304.82C202.992 304.773 202.165 305.434 202.104 306.497Z" fill="black"/>
<path d="M354.531 314.71C354.028 315.213 355.025 319.894 356.946 324.985C358.709 330.067 360.879 333.574 361.559 332.725C363.244 330.871 367.166 320.263 367.348 317.075C367.591 312.824 364.509 314.239 363.144 318.779C361.967 322.797 359.002 324.93 359.194 321.565C359.336 319.085 355.694 313.713 354.531 314.71Z" fill="black"/>
<path d="M329.042 318.52C326.692 323.712 327.999 331.255 331.93 334.333C335.242 337.197 344.132 333.64 341.628 330.469C340.449 328.977 339.348 328.911 337.525 330.402C334.865 332.731 331.325 331.098 332.452 327.966C332.66 327.09 334.777 325.972 336.843 325.74C342.403 325.183 343.951 322.965 342.148 318.592C339.785 312.941 331.736 312.816 329.042 318.52ZM337.964 319.941C338.386 320.855 337.391 321.685 335.502 321.572C333.613 321.459 332.719 320.517 333.241 319.659C333.774 318.625 334.917 317.982 335.704 318.029C336.491 318.076 337.552 318.85 337.964 319.941Z" fill="black"/>
<path d="M132.636 308.748C128.199 314.526 127.577 322.664 131.255 330.171C133.648 335.291 135.015 336.261 139.895 336.552C143.2 336.75 147.577 337.544 149.741 338.385C152.996 339.468 153.321 339.309 151.868 337.09C150.71 335.243 150.47 331.141 151.423 325.51C153.212 313.531 149.269 305.12 141.556 304.659C137.621 304.424 135.189 305.523 132.636 308.748ZM146.286 313.117C148.023 315.887 149.218 319.869 149.086 322.171C148.894 325.537 148.057 326.376 144.751 326.178C141.288 325.971 140.953 326.307 142.396 328.704C143.849 330.923 143.651 331.622 141.396 332.376C133.973 335.132 129.408 315.487 136.333 310.39C140.785 307.101 142.958 307.764 146.286 313.117Z" fill="black"/>
<path d="M293.111 317.086C288.868 325.008 291.882 335.852 298.651 336.256C301.17 336.407 302.358 337.722 302.522 340.398C302.705 342.719 303.549 344.547 304.493 344.603C305.752 344.678 306.253 319.292 305.008 316.196C304.723 315.646 302.403 314.797 299.737 314.46C296.451 313.908 294.512 314.681 293.111 317.086ZM301.736 326.487C300.742 332.826 295.822 333.244 294.739 327.314C293.823 321.216 297.254 316.444 300.378 319.83C301.577 320.968 302.192 324.026 301.736 326.487Z" fill="black"/>
<path d="M310.234 321.485C309.598 332.644 316.277 340.153 321.805 334.617C324.151 332.269 325.415 315.637 323.212 315.506C322.425 315.459 321.456 318.6 321.233 322.497C320.96 327.28 320.012 330.067 318.397 330.681C315.011 331.901 314.294 330.614 313.825 322.233C313.248 312.956 310.75 312.451 310.234 321.485Z" fill="black"/>
<path d="M266.25 317.259C260.951 327.074 267.033 339.523 275.166 335.387C279.39 333.329 278.597 330.616 273.855 330.688C267.833 331.039 267.09 327.44 272.818 326.716C278.231 325.973 279.89 321.806 276.512 317.339C273.271 313.235 268.528 313.307 266.25 317.259ZM273.613 321.076C273.858 322.334 273.02 323.173 271.603 323.089C270.186 323.004 269.155 321.698 269.246 320.104C269.418 317.093 272.851 317.831 273.613 321.076Z" fill="black"/>
<path d="M229.501 316.309C227.491 318.322 227.444 330.227 229.456 333.724C231.046 336.308 232.589 336.933 236.585 336.105C241.693 335.166 241.704 334.989 241.737 326.104C241.79 316.865 241.79 316.865 236.311 316.005C233.183 315.462 230.171 315.638 229.501 316.309ZM238.679 324.322C239.026 329.319 235.94 333.578 232.872 331.973C230.719 330.956 230.27 322.22 232.448 320.04C234.783 317.868 238.429 320.397 238.679 324.322Z" fill="black"/>
<path d="M177.175 317.095C173.794 320.981 173.152 329.474 175.88 334.258C177.45 337.195 178.699 337.448 183.188 336.294C188.473 335.01 188.493 334.655 188.506 326.125C188.632 321.156 188.539 317.24 188.392 317.053C188.245 316.867 186.229 316.213 184.055 315.55C181.272 314.496 179.185 315.082 177.175 317.095ZM184.855 326.44C185.024 331.782 184.679 332.295 181.404 331.566C177.814 330.818 176.325 326.464 178.172 321.775C180.186 316.919 184.737 320.212 184.855 326.44Z" fill="black"/>
<path d="M202.797 316.492C201.387 319.074 202.219 334.942 203.793 335.036C205.524 335.139 206.5 320.801 204.793 317.5C204.077 316.213 203.153 315.802 202.797 316.492Z" fill="black"/>
<path d="M156.896 323.704C156.199 335.926 161.878 341.597 167.781 335.018C170.649 331.813 171.82 325.128 170.382 319.888C168.806 314.284 166.755 317.006 166.656 324.287C166.754 330.869 166.221 331.904 163.545 331.744C161.027 331.593 160.321 330.129 160.279 325.328C160.047 315.539 157.432 314.316 156.896 323.704Z" fill="black"/>
<path d="M427.338 303.772C426.283 305.664 428.523 307.931 430.188 306.43C431.695 304.921 431.522 302.422 429.948 302.328C429.003 302.272 428.018 302.924 427.338 303.772Z" fill="black"/>
<defs>
<linearGradient id="paint0_linear_0_1" x1="381.731" y1="55.7236" x2="379.4" y2="133.919" gradientUnits="userSpaceOnUse">
<stop stop-color="#EFEC8F"/>
<stop offset="1" stop-color="#FFEA00"/>
</linearGradient>
<linearGradient id="paint1_linear_0_1" x1="531.06" y1="144.803" x2="213.841" y2="133.173" gradientUnits="userSpaceOnUse">
<stop stop-color="#959595"/>
<stop offset="1" stop-color="#DADADA"/>
</linearGradient>
<linearGradient id="paint2_linear_0_1" x1="507.991" y1="163.548" x2="236.771" y2="153.605" gradientUnits="userSpaceOnUse">
<stop stop-color="#D9D9D9"/>
<stop offset="0.195" stop-color="#D9D9D9"/>
<stop offset="0.99" stop-color="#737373"/>
</linearGradient>
<linearGradient id="paint3_linear_0_1" x1="509.528" y1="290.57" x2="515.265" y2="187.741" gradientUnits="userSpaceOnUse">
<stop stop-color="#F93333"/>
<stop offset="1" stop-color="#FFEE00"/>
</linearGradient>
<linearGradient id="paint4_linear_0_1" x1="509.528" y1="290.57" x2="515.265" y2="187.741" gradientUnits="userSpaceOnUse">
<stop stop-opacity="0.29"/>
<stop offset="1" stop-color="#666666"/>
</linearGradient>
<linearGradient id="paint5_linear_0_1" x1="629.051" y1="290.799" x2="633.797" y2="205.736" gradientUnits="userSpaceOnUse">
<stop stop-color="#F93333"/>
<stop offset="1" stop-color="#FFEE00"/>
</linearGradient>
<linearGradient id="paint6_linear_0_1" x1="629.051" y1="290.799" x2="633.797" y2="205.736" gradientUnits="userSpaceOnUse">
<stop stop-opacity="0.29"/>
<stop offset="1" stop-color="#666666"/>
</linearGradient>
<linearGradient id="paint7_linear_0_1" x1="570.399" y1="291.353" x2="575.277" y2="203.923" gradientUnits="userSpaceOnUse">
<stop stop-color="#F93333"/>
<stop offset="1" stop-color="#FFEE00"/>
</linearGradient>
<linearGradient id="paint8_linear_0_1" x1="570.399" y1="291.353" x2="575.277" y2="203.923" gradientUnits="userSpaceOnUse">
<stop stop-opacity="0.29"/>
<stop offset="1" stop-color="#666666"/>
</linearGradient>
<linearGradient id="paint9_linear_0_1" x1="443.821" y1="289.754" x2="448.518" y2="205.564" gradientUnits="userSpaceOnUse">
<stop stop-color="#F93333"/>
<stop offset="1" stop-color="#FFEE00"/>
</linearGradient>
<linearGradient id="paint10_linear_0_1" x1="443.821" y1="289.754" x2="448.518" y2="205.564" gradientUnits="userSpaceOnUse">
<stop stop-opacity="0.29"/>
<stop offset="1" stop-color="#666666"/>
</linearGradient>
<linearGradient id="paint11_linear_0_1" x1="378.348" y1="293.795" x2="383.294" y2="205.152" gradientUnits="userSpaceOnUse">
<stop stop-color="#F93333"/>
<stop offset="1" stop-color="#FFEE00"/>
</linearGradient>
<linearGradient id="paint12_linear_0_1" x1="378.348" y1="293.795" x2="383.294" y2="205.152" gradientUnits="userSpaceOnUse">
<stop stop-opacity="0.29"/>
<stop offset="1" stop-color="#666666"/>
</linearGradient>
<linearGradient id="paint13_linear_0_1" x1="106.726" y1="290.075" x2="112.585" y2="185.063" gradientUnits="userSpaceOnUse">
<stop stop-color="#1B1B1B"/>
<stop offset="1" stop-color="#999999"/>
</linearGradient>
<linearGradient id="paint14_linear_0_1" x1="285.671" y1="292.473" x2="290.629" y2="203.606" gradientUnits="userSpaceOnUse">
<stop stop-color="#1B1B1B"/>
<stop offset="1" stop-color="#999999"/>
</linearGradient>
<linearGradient id="paint15_linear_0_1" x1="223.57" y1="290.572" x2="228.356" y2="204.806" gradientUnits="userSpaceOnUse">
<stop stop-color="#1B1B1B"/>
<stop offset="1" stop-color="#999999"/>
</linearGradient>
<linearGradient id="paint16_linear_0_1" x1="155.947" y1="291.379" x2="160.774" y2="204.87" gradientUnits="userSpaceOnUse">
<stop stop-color="#1B1B1B"/>
<stop offset="1" stop-color="#999999"/>
</linearGradient>
</defs>
</svg>
